<svg width="14" height="14" viewBox="0 0 14 14" fill="none" xmlns="http://www.w3.org/2000/svg">
<circle cx="7" cy="7" r="7" fill="url(#paint0_linear_143_1009)"/>
<path d="M4.37305 3.63904V10.1356C4.37305 10.1356 4.71982 10.1541 4.92931 9.82537V3.32873C4.92931 3.32873 4.58266 3.30798 4.37305 3.63904Z" fill="white"/>
<path d="M5.54688 1.96089V8.52077C5.54688 8.52077 5.71953 8.82849 6.10314 8.82812V2.2712C6.10314 2.2712 5.93159 1.96249 5.54688 1.96089Z" fill="white"/>
<path d="M6.72168 4.51113L6.7218 11.0017C6.7218 11.0017 7.06956 11.0208 7.27807 10.6917V4.20058C7.27807 4.20058 6.94026 4.17713 6.72168 4.51113Z" fill="white"/>
<path d="M7.89612 2.83282L7.89551 9.39135C7.89551 9.39135 8.06153 9.69993 8.45239 9.70312V3.143C8.45239 3.143 8.28514 2.837 7.89612 2.83282Z" fill="white"/>
<path d="M9.07031 4.89178V11.453C9.07031 11.453 9.23707 11.7594 9.62658 11.7632L9.62695 5.20183C9.62695 5.20183 9.45736 4.89178 9.07031 4.89178Z" fill="white"/>
<path d="M6.99994 12.7939C3.81155 12.7939 1.21761 10.1946 1.21761 6.99982C1.21761 3.80504 3.81155 1.20582 6.99994 1.20582C10.1883 1.20582 12.7824 3.80504 12.7824 6.99982C12.7824 10.1946 10.1883 12.7939 6.99994 12.7939ZM11.4216 2.58248C10.8476 2.00804 10.1792 1.55702 9.43486 1.2418C8.66358 0.915407 7.84428 0.749755 6.99994 0.749755C6.15547 0.749755 5.3363 0.915407 4.56502 1.2418C3.82063 1.55702 3.15225 2.00804 2.57843 2.58248C1.39934 3.76267 0.75 5.33151 0.75 6.99982C0.75 8.66824 1.39934 10.2371 2.57843 11.4173C3.15225 11.9916 3.82063 12.4427 4.56502 12.7578C5.3363 13.0843 6.15547 13.25 6.99994 13.25C7.84428 13.25 8.66358 13.0843 9.43486 12.7578C10.1792 12.4427 10.8476 11.9916 11.4216 11.4173C12.6007 10.237 13.25 8.66824 13.25 6.99982C13.25 5.33151 12.6007 3.76267 11.4216 2.58248Z" fill="white"/>
<defs>
<linearGradient id="paint0_linear_143_1009" x1="7" y1="0" x2="7" y2="14" gradientUnits="userSpaceOnUse">
<stop stop-color="#CB964E"/>
<stop offset="1" stop-color="#B9813A"/>
</linearGradient>
</defs>
</svg>
