<svg width="20" height="21" viewBox="0 0 20 21" fill="none" xmlns="http://www.w3.org/2000/svg">
<mask id="mask0_156_648" style="mask-type:alpha" maskUnits="userSpaceOnUse" x="0" y="0" width="20" height="21">
<rect y="0.5" width="20" height="20" fill="#D9D9D9"/>
</mask>
<g mask="url(#mask0_156_648)">
<path d="M10.2884 9.62796V4.16984C10.2884 3.95636 10.3607 3.77748 10.5055 3.63317C10.6502 3.48873 10.8296 3.4165 11.0436 3.4165H16.3311C16.5451 3.4165 16.7239 3.48873 16.8675 3.63317C17.0113 3.77748 17.0832 3.95636 17.0832 4.16984V7.72734C17.0832 7.94081 17.0109 8.1197 16.8665 8.264C16.7222 8.40845 16.5433 8.48067 16.3298 8.48067H12.3396L10.9325 9.88755C10.8096 10.0105 10.6716 10.0411 10.5184 9.97942C10.365 9.91775 10.2884 9.8006 10.2884 9.62796ZM11.5384 7.23067H15.8332V4.6665H11.5384V7.23067ZM16.2 17.5832C14.6296 17.5832 13.0519 17.218 11.4669 16.4878C9.88206 15.7575 8.42588 14.7273 7.09838 13.3973C5.77102 12.0672 4.7422 10.6109 4.01192 9.02859C3.28164 7.44637 2.9165 5.87005 2.9165 4.29963C2.9165 4.04727 2.99984 3.83699 3.1665 3.6688C3.33317 3.5006 3.5415 3.4165 3.7915 3.4165H6.50942C6.71984 3.4165 6.90546 3.48518 7.0663 3.62255C7.22713 3.75977 7.32942 3.92935 7.37317 4.1313L7.85088 6.58317C7.88393 6.81067 7.87699 7.00616 7.83005 7.16963C7.78296 7.3331 7.69852 7.47039 7.57671 7.5815L5.65213 9.45505C5.96185 10.0223 6.31574 10.5589 6.7138 11.0648C7.11171 11.5707 7.54255 12.0538 8.0063 12.5142C8.46352 12.9716 8.94963 13.3963 9.46463 13.7884C9.97963 14.1805 10.5357 14.5453 11.133 14.883L13.003 12.9967C13.1334 12.861 13.2913 12.7659 13.4767 12.7113C13.662 12.6569 13.8546 12.6435 14.0544 12.6713L16.3684 13.1425C16.5788 13.1981 16.7505 13.3055 16.8836 13.4646C17.0166 13.6238 17.0832 13.8044 17.0832 14.0063V16.7082C17.0832 16.9582 16.9991 17.1665 16.8309 17.3332C16.6627 17.4998 16.4524 17.5832 16.2 17.5832ZM5.06067 8.27234L6.54796 6.84921C6.57463 6.82782 6.59199 6.79845 6.60005 6.76109C6.6081 6.72373 6.60678 6.689 6.59609 6.65692L6.2338 4.79463C6.2231 4.75199 6.20442 4.71998 6.17775 4.69859C6.15109 4.6772 6.11637 4.6665 6.07359 4.6665H4.2915C4.25942 4.6665 4.23268 4.6772 4.2113 4.69859C4.19005 4.71998 4.17942 4.74671 4.17942 4.7788C4.22206 5.34824 4.31525 5.92671 4.459 6.51421C4.60261 7.10185 4.80317 7.68789 5.06067 8.27234ZM12.3107 15.4742C12.863 15.7317 13.4391 15.9286 14.039 16.0648C14.639 16.2009 15.1996 16.2819 15.7209 16.3075C15.753 16.3075 15.7797 16.2969 15.8011 16.2755C15.8225 16.2541 15.8332 16.2273 15.8332 16.1953V14.4421C15.8332 14.3994 15.8225 14.3646 15.8011 14.338C15.7797 14.3113 15.7477 14.2926 15.705 14.2819L13.955 13.9261C13.923 13.9154 13.8949 13.9141 13.8709 13.9221C13.8469 13.9302 13.8214 13.9475 13.7946 13.9742L12.3107 15.4742Z" fill="url(#paint0_linear_156_648)"/>
</g>
<defs>
<linearGradient id="paint0_linear_156_648" x1="9.99984" y1="3.4165" x2="9.99984" y2="17.5832" gradientUnits="userSpaceOnUse">
<stop stop-color="#CB964E"/>
<stop offset="1" stop-color="#B9813A"/>
</linearGradient>
</defs>
</svg>
