<svg width="20" height="21" viewBox="0 0 20 21" fill="none" xmlns="http://www.w3.org/2000/svg">
<mask id="mask0_156_642" style="mask-type:alpha" maskUnits="userSpaceOnUse" x="0" y="0" width="20" height="21">
<rect y="0.5" width="20" height="20" fill="#D9D9D9"/>
</mask>
<g mask="url(#mask0_156_642)">
<path d="M5 16.3332H7.78854V12.1345C7.78854 11.9211 7.86069 11.7423 8.005 11.5978C8.14944 11.4535 8.32833 11.3813 8.54167 11.3813H11.4583C11.6717 11.3813 11.8506 11.4535 11.995 11.5978C12.1393 11.7423 12.2115 11.9211 12.2115 12.1345V16.3332H15V8.96135C15 8.91871 14.9906 8.88003 14.9719 8.84531C14.9533 8.81058 14.9279 8.77982 14.8958 8.75302L10.1523 5.18739C10.1095 5.15003 10.0587 5.13135 10 5.13135C9.94125 5.13135 9.89049 5.15003 9.84771 5.18739L5.10417 8.75302C5.07208 8.77982 5.04674 8.81058 5.02813 8.84531C5.00938 8.88003 5 8.91871 5 8.96135V16.3332ZM3.75 16.3332V8.96135C3.75 8.72288 3.80333 8.49697 3.91 8.28364C4.01681 8.07017 4.16431 7.8944 4.3525 7.75635L9.09625 4.1826C9.35944 3.98176 9.66028 3.88135 9.99875 3.88135C10.3372 3.88135 10.6389 3.98176 10.9037 4.1826L15.6475 7.75635C15.8357 7.8944 15.9832 8.07017 16.09 8.28364C16.1967 8.49697 16.25 8.72288 16.25 8.96135V16.3332C16.25 16.6741 16.1269 16.9676 15.8806 17.2138C15.6344 17.4601 15.3408 17.5832 15 17.5832H11.7148C11.5013 17.5832 11.3224 17.511 11.1781 17.3666C11.0337 17.2223 10.9615 17.0434 10.9615 16.8299V12.6313H9.03854V16.8299C9.03854 17.0434 8.96632 17.2223 8.82188 17.3666C8.67757 17.511 8.49868 17.5832 8.28521 17.5832H5C4.65917 17.5832 4.36562 17.4601 4.11937 17.2138C3.87312 16.9676 3.75 16.6741 3.75 16.3332Z" fill="url(#paint0_linear_156_642)"/>
</g>
<defs>
<linearGradient id="paint0_linear_156_642" x1="10" y1="3.88135" x2="10" y2="17.5832" gradientUnits="userSpaceOnUse">
<stop stop-color="#CB964E"/>
<stop offset="1" stop-color="#B9813A"/>
</linearGradient>
</defs>
</svg>
