<svg width="33" height="34" viewBox="0 0 33 34" fill="none" xmlns="http://www.w3.org/2000/svg">
<rect x="0.5" y="1" width="32" height="32" rx="16" stroke="url(#paint0_linear_143_991)"/>
<path d="M16.5 10.4458C18.6205 10.4458 18.9096 10.4458 19.7771 10.4458C20.5482 10.4458 20.9337 10.6386 21.2229 10.7349C21.6084 10.9277 21.8976 11.0241 22.1867 11.3133C22.4759 11.6024 22.6687 11.8916 22.7651 12.2771C22.8614 12.5663 22.9578 12.9518 23.0542 13.7229C23.0542 14.5904 23.0542 14.7831 23.0542 17C23.0542 19.2169 23.0542 19.4096 23.0542 20.2771C23.0542 21.0482 22.8614 21.4337 22.7651 21.7229C22.5723 22.1084 22.4759 22.3976 22.1867 22.6867C21.8976 22.9759 21.6084 23.1687 21.2229 23.2651C20.9337 23.3614 20.5482 23.4578 19.7771 23.5542C18.9096 23.5542 18.7169 23.5542 16.5 23.5542C14.2831 23.5542 14.0904 23.5542 13.2229 23.5542C12.4518 23.5542 12.0663 23.3614 11.7771 23.2651C11.3916 23.0723 11.1024 22.9759 10.8133 22.6867C10.5241 22.3976 10.3313 22.1084 10.2349 21.7229C10.1386 21.4337 10.0422 21.0482 9.94578 20.2771C9.94578 19.4096 9.94578 19.2169 9.94578 17C9.94578 14.7831 9.94578 14.5904 9.94578 13.7229C9.94578 12.9518 10.1386 12.5663 10.2349 12.2771C10.4277 11.8916 10.5241 11.6024 10.8133 11.3133C11.1024 11.0241 11.3916 10.8313 11.7771 10.7349C12.0663 10.6386 12.4518 10.5422 13.2229 10.4458C14.0904 10.4458 14.3795 10.4458 16.5 10.4458ZM16.5 9C14.2831 9 14.0904 9 13.2229 9C12.3554 9 11.7771 9.19277 11.2952 9.38554C10.8133 9.57831 10.3313 9.86747 9.8494 10.3494C9.36747 10.8313 9.1747 11.2169 8.88554 11.7952C8.69277 12.2771 8.59639 12.8554 8.5 13.7229C8.5 14.5904 8.5 14.8795 8.5 17C8.5 19.2169 8.5 19.4096 8.5 20.2771C8.5 21.1446 8.69277 21.7229 8.88554 22.2048C9.07831 22.6867 9.36747 23.1687 9.8494 23.6506C10.3313 24.1325 10.7169 24.3253 11.2952 24.6145C11.7771 24.8072 12.3554 24.9036 13.2229 25C14.0904 25 14.3795 25 16.5 25C18.6205 25 18.9096 25 19.7771 25C20.6446 25 21.2229 24.8072 21.7048 24.6145C22.1867 24.4217 22.6687 24.1325 23.1506 23.6506C23.6325 23.1687 23.8253 22.7831 24.1145 22.2048C24.3072 21.7229 24.4036 21.1446 24.5 20.2771C24.5 19.4096 24.5 19.1205 24.5 17C24.5 14.8795 24.5 14.5904 24.5 13.7229C24.5 12.8554 24.3072 12.2771 24.1145 11.7952C23.9217 11.3133 23.6325 10.8313 23.1506 10.3494C22.6687 9.86747 22.2831 9.6747 21.7048 9.38554C21.2229 9.19277 20.6446 9.09639 19.7771 9C18.9096 9 18.7169 9 16.5 9Z" fill="url(#paint1_linear_143_991)"/>
<path d="M16.5 12.8554C14.1867 12.8554 12.3554 14.6867 12.3554 17C12.3554 19.3133 14.1867 21.1446 16.5 21.1446C18.8133 21.1446 20.6446 19.3133 20.6446 17C20.6446 14.6867 18.8133 12.8554 16.5 12.8554ZM16.5 19.6988C15.0542 19.6988 13.8012 18.5422 13.8012 17C13.8012 15.5542 14.9578 14.3012 16.5 14.3012C17.9458 14.3012 19.1988 15.4578 19.1988 17C19.1988 18.4458 17.9458 19.6988 16.5 19.6988Z" fill="url(#paint2_linear_143_991)"/>
<path d="M20.741 13.7229C21.2733 13.7229 21.7048 13.2914 21.7048 12.759C21.7048 12.2267 21.2733 11.7952 20.741 11.7952C20.2086 11.7952 19.7771 12.2267 19.7771 12.759C19.7771 13.2914 20.2086 13.7229 20.741 13.7229Z" fill="url(#paint3_linear_143_991)"/>
<defs>
<linearGradient id="paint0_linear_143_991" x1="16.5" y1="0.5" x2="16.5" y2="33.5" gradientUnits="userSpaceOnUse">
<stop stop-color="#CB964E"/>
<stop offset="1" stop-color="#B9813A"/>
</linearGradient>
<linearGradient id="paint1_linear_143_991" x1="16.5" y1="9" x2="16.5" y2="25" gradientUnits="userSpaceOnUse">
<stop stop-color="#CB964E"/>
<stop offset="1" stop-color="#B9813A"/>
</linearGradient>
<linearGradient id="paint2_linear_143_991" x1="16.5" y1="9" x2="16.5" y2="25" gradientUnits="userSpaceOnUse">
<stop stop-color="#CB964E"/>
<stop offset="1" stop-color="#B9813A"/>
</linearGradient>
<linearGradient id="paint3_linear_143_991" x1="16.5" y1="9" x2="16.5" y2="25" gradientUnits="userSpaceOnUse">
<stop stop-color="#CB964E"/>
<stop offset="1" stop-color="#B9813A"/>
</linearGradient>
</defs>
</svg>
