<svg width="20" height="21" viewBox="0 0 20 21" fill="none" xmlns="http://www.w3.org/2000/svg">
<mask id="mask0_156_654" style="mask-type:alpha" maskUnits="userSpaceOnUse" x="0" y="0" width="20" height="21">
<rect y="0.5" width="20" height="20" fill="#D9D9D9"/>
</mask>
<g mask="url(#mask0_156_654)">
<path d="M2.70031 15.0835C2.286 15.0835 1.93135 14.936 1.63635 14.641C1.34135 14.346 1.19385 13.9913 1.19385 13.577V4.08995C1.19385 3.67565 1.34135 3.321 1.63635 3.026C1.93135 2.731 2.286 2.5835 2.70031 2.5835H15.5207C15.935 2.5835 16.2897 2.731 16.5847 3.026C16.8797 3.321 17.0272 3.67565 17.0272 4.08995V7.53537C17.0272 7.71245 16.9672 7.86093 16.8474 7.98079C16.7275 8.10051 16.579 8.16037 16.4018 8.16037C16.2247 8.16037 16.0763 8.10051 15.9566 7.98079C15.837 7.86093 15.7772 7.71245 15.7772 7.53537V5.03537L9.51593 9.0435C9.45176 9.07975 9.38551 9.10829 9.31718 9.12912C9.24885 9.14995 9.17996 9.16037 9.11051 9.16037C9.04107 9.16037 8.97211 9.14995 8.90364 9.12912C8.83531 9.10829 8.76913 9.07975 8.7051 9.0435L2.44385 5.03537V13.577C2.44385 13.6519 2.46788 13.7134 2.51593 13.7614C2.56399 13.8095 2.62544 13.8335 2.70031 13.8335H10.4566C10.6336 13.8335 10.7821 13.8934 10.902 14.0133C11.0217 14.1332 11.0816 14.2816 11.0816 14.4587C11.0816 14.6359 11.0217 14.7843 10.902 14.9039C10.7821 15.0236 10.6336 15.0835 10.4566 15.0835H2.70031ZM9.11051 8.00016L15.6488 3.8335H2.57197L9.11051 8.00016ZM2.44385 5.22766V4.28891V4.29975V4.28308V5.22766ZM15.7772 18.4008C14.9407 18.4008 14.2267 18.1051 13.6353 17.5137C13.0439 16.9225 12.7482 16.2086 12.7482 15.372V11.622C12.7482 11.1105 12.9248 10.6781 13.278 10.3247C13.6312 9.97155 14.0636 9.79496 14.5753 9.79496C15.0868 9.79496 15.5192 9.97155 15.8724 10.3247C16.2256 10.6781 16.4022 11.1105 16.4022 11.622V14.747C16.4022 14.9241 16.3422 15.0725 16.2224 15.1922C16.1025 15.3121 15.954 15.372 15.7768 15.372C15.5997 15.372 15.4513 15.3121 15.3316 15.1922C15.212 15.0725 15.1522 14.9241 15.1522 14.747V11.622C15.1522 11.4627 15.0958 11.3268 14.983 11.2141C14.8704 11.1013 14.7345 11.045 14.5753 11.045C14.416 11.045 14.28 11.1013 14.1674 11.2141C14.0546 11.3268 13.9982 11.4627 13.9982 11.622V15.372C13.9982 15.8612 14.1725 16.28 14.5211 16.6283C14.8698 16.9766 15.2888 17.1508 15.7784 17.1508C16.268 17.1508 16.6866 16.9766 17.0343 16.6283C17.382 16.28 17.5559 15.8612 17.5559 15.372V12.6635C17.5559 12.4866 17.6159 12.3382 17.7357 12.2183C17.8556 12.0986 18.0041 12.0387 18.1813 12.0387C18.3584 12.0387 18.5068 12.0986 18.6266 12.2183C18.7461 12.3382 18.8059 12.4866 18.8059 12.6635V15.372C18.8059 16.2086 18.5102 16.9225 17.9188 17.5137C17.3276 18.1051 16.6137 18.4008 15.7772 18.4008Z" fill="url(#paint0_linear_156_654)"/>
</g>
<defs>
<linearGradient id="paint0_linear_156_654" x1="9.99989" y1="2.5835" x2="9.99989" y2="18.4008" gradientUnits="userSpaceOnUse">
<stop stop-color="#CB964E"/>
<stop offset="1" stop-color="#B9813A"/>
</linearGradient>
</defs>
</svg>
