<svg width="33" height="34" viewBox="0 0 33 34" fill="none" xmlns="http://www.w3.org/2000/svg">
<rect x="0.5" y="1" width="32" height="32" rx="16" stroke="url(#paint0_linear_143_984)"/>
<path fill-rule="evenodd" clip-rule="evenodd" d="M20.6236 18.7866C20.3996 18.6751 19.2986 18.1359 19.0933 18.0616C18.8881 17.9872 18.7388 17.95 18.5895 18.1731C18.4402 18.3962 18.0111 18.8982 17.8804 19.047C17.7498 19.1957 17.6192 19.2143 17.3953 19.1027C17.1713 18.9912 16.4498 18.7558 15.5944 17.9965C14.9287 17.4056 14.4793 16.6757 14.3486 16.4526C14.218 16.2295 14.3347 16.1089 14.4469 15.9978C14.5476 15.898 14.6708 15.7375 14.7827 15.6074C14.8947 15.4772 14.932 15.3842 15.0067 15.2355C15.0813 15.0868 15.044 14.9566 14.988 14.8451C14.932 14.7335 14.4842 13.6365 14.2976 13.1903C14.1158 12.7557 13.9312 12.8145 13.7937 12.8077C13.6632 12.8013 13.5138 12.7999 13.3645 12.7999C13.2152 12.7999 12.9726 12.8557 12.7673 13.0788C12.5621 13.3019 11.9836 13.8411 11.9836 14.938C11.9836 16.035 12.786 17.0947 12.898 17.2435C13.01 17.3923 14.4771 19.6434 16.7235 20.6087C17.2578 20.8383 17.6749 20.9754 18.0001 21.0782C18.5366 21.2478 19.0248 21.2239 19.4106 21.1665C19.8409 21.1025 20.7355 20.6273 20.9222 20.1067C21.1087 19.5861 21.1087 19.1399 21.0528 19.047C20.9968 18.954 20.8475 18.8982 20.6236 18.7866ZM16.5377 24.3389H16.5347C15.198 24.3384 13.887 23.981 12.7433 23.3055L12.4712 23.1448L9.6519 23.8809L10.4044 21.1452L10.2273 20.8648C9.48164 19.6844 9.08782 18.3201 9.08838 16.9194C9.09002 12.8319 12.4317 9.50637 16.5406 9.50637C18.5303 9.50715 20.4006 10.2793 21.807 11.6805C23.2135 13.0818 23.9876 14.9445 23.9868 16.9254C23.9851 21.0132 20.6435 24.3389 16.5377 24.3389ZM22.8774 10.6158C21.1853 8.92986 18.9351 8.00094 16.5376 8C11.5977 8 7.57714 12.001 7.57516 16.9189C7.57452 18.4909 7.98719 20.0254 8.77146 21.378L7.5 26L12.2511 24.7597C13.5601 25.4703 15.034 25.8447 16.534 25.8454H16.5376H16.5377C21.4771 25.8454 25.498 21.8439 25.5 16.926C25.5009 14.5427 24.5696 12.3017 22.8774 10.6158Z" fill="url(#paint1_linear_143_984)"/>
<defs>
<linearGradient id="paint0_linear_143_984" x1="16.5" y1="0.5" x2="16.5" y2="33.5" gradientUnits="userSpaceOnUse">
<stop stop-color="#CB964E"/>
<stop offset="1" stop-color="#B9813A"/>
</linearGradient>
<linearGradient id="paint1_linear_143_984" x1="16.5" y1="26" x2="16.5" y2="8" gradientUnits="userSpaceOnUse">
<stop stop-color="#CB964E"/>
<stop offset="1" stop-color="#B9813A"/>
</linearGradient>
</defs>
</svg>
