<svg width="33" height="34" viewBox="0 0 33 34" fill="none" xmlns="http://www.w3.org/2000/svg">
<rect x="0.5" y="1" width="32" height="32" rx="16" stroke="url(#paint0_linear_824_2026)"/>
<path d="M25.1687 13.4059C25.1687 13.2529 24.9393 12.0294 24.404 11.4941C23.7158 10.7294 22.951 10.6529 22.5687 10.6529H22.4922C20.1216 10.5 16.604 10.5 16.5275 10.5C16.5275 10.5 12.9334 10.5 10.5628 10.6529H10.4863C10.104 10.6529 9.33928 10.7294 8.65105 11.4941C8.11575 12.1059 7.88634 13.3294 7.88634 13.4824C7.88634 13.5588 7.7334 14.9353 7.7334 16.3882V17.6882C7.7334 19.1412 7.88634 20.5176 7.88634 20.5941C7.88634 20.7471 8.11575 21.9706 8.65105 22.5059C9.26281 23.1941 10.0275 23.2706 10.4863 23.3471C10.5628 23.3471 10.6393 23.3471 10.7158 23.3471C12.0922 23.5 16.2981 23.5 16.451 23.5C16.451 23.5 20.0452 23.5 22.4158 23.3471H22.4922C22.8746 23.2706 23.6393 23.1941 24.3275 22.5059C24.8628 21.8941 25.0922 20.6706 25.0922 20.5176C25.0922 20.4412 25.2452 19.0647 25.2452 17.6118V16.3118C25.3216 14.9353 25.1687 13.4824 25.1687 13.4059ZM19.5099 17.1529L14.9216 19.6C14.8452 19.6 14.8452 19.6765 14.7687 19.6765C14.6922 19.6765 14.6158 19.6765 14.6158 19.6C14.5393 19.5235 14.4628 19.4471 14.4628 19.2941V14.3235C14.4628 14.1706 14.5393 14.0941 14.6158 14.0176C14.6922 13.9412 14.8452 13.9412 14.9981 14.0176L19.5863 16.4647C19.7393 16.5412 19.8158 16.6176 19.8158 16.7706C19.8158 16.9235 19.6628 17.0765 19.5099 17.1529Z" fill="url(#paint1_linear_824_2026)"/>
<defs>
<linearGradient id="paint0_linear_824_2026" x1="16.5" y1="0.5" x2="16.5" y2="33.5" gradientUnits="userSpaceOnUse">
<stop stop-color="#CB964E"/>
<stop offset="1" stop-color="#B9813A"/>
</linearGradient>
<linearGradient id="paint1_linear_824_2026" x1="16.5" y1="10.5" x2="16.5" y2="23.5" gradientUnits="userSpaceOnUse">
<stop stop-color="#CB964E"/>
<stop offset="1" stop-color="#B9813A"/>
</linearGradient>
</defs>
</svg>
