<svg width="32" height="32" viewBox="0 0 32 32" fill="none" xmlns="http://www.w3.org/2000/svg">
<path d="M25.2413 4.88845C25.5801 4.88845 25.8548 4.61382 25.8548 4.27504C25.8548 3.93626 25.5801 3.66162 25.2413 3.66162C24.9026 3.66162 24.6279 3.93626 24.6279 4.27504C24.6279 4.61382 24.9026 4.88845 25.2413 4.88845Z" fill="url(#paint0_linear_261_1533)"/>
<path d="M28.6736 2.58107C28.2847 1.59793 27.3813 0.400145 25.2841 0.275592C25.2688 0.275099 25.2545 0.277561 25.2393 0.277561C25.225 0.277561 25.2112 0.274607 25.1965 0.275592C23.0987 0.400145 22.1953 1.59842 21.8069 2.58156C20.6909 5.40495 22.4317 10.3206 24.2586 12.6891C22.7083 13.8677 17.4756 14.7544 13.5578 15.418C6.59855 16.5966 2.9668 17.3045 2.9668 19.2929C2.9668 21.2774 6.4548 21.9736 12.1459 22.9449C14.6778 23.3771 19.946 24.2766 20.0957 25.1406C19.946 26.0051 14.6768 26.904 12.1444 27.3363C6.4543 28.3076 2.9668 29.0032 2.9668 30.9867C2.9668 31.3944 3.29714 31.7252 3.70526 31.7252C4.11338 31.7252 4.44372 31.3949 4.44372 30.9867C4.59634 30.1227 9.86206 29.2238 12.3925 28.792C18.0841 27.8207 21.5721 27.1246 21.5721 25.1406C21.5721 23.1566 18.0846 22.4605 12.394 21.4891C9.86107 21.0569 4.59141 20.1574 4.43978 19.3171C4.7967 18.3999 10.4356 17.4443 13.8045 16.8737C20.2429 15.7833 24.5791 14.9286 25.7902 13.2021C27.7579 11.1113 29.8773 5.62648 28.6736 2.58107ZM25.2413 6.36544C24.0888 6.36544 23.1509 5.42808 23.1509 4.27559C23.1509 3.1231 24.0888 2.18525 25.2413 2.18525C26.3933 2.18525 27.3306 3.1231 27.3306 4.27559C27.3306 5.42759 26.3928 6.36544 25.2413 6.36544Z" fill="url(#paint1_linear_261_1533)"/>
<defs>
<linearGradient id="paint0_linear_261_1533" x1="25.2413" y1="3.66162" x2="25.2413" y2="4.88845" gradientUnits="userSpaceOnUse">
<stop stop-color="#CB964E"/>
<stop offset="1" stop-color="#B9813A"/>
</linearGradient>
<linearGradient id="paint1_linear_261_1533" x1="15.9959" y1="0.275391" x2="15.9959" y2="31.7252" gradientUnits="userSpaceOnUse">
<stop stop-color="#CB964E"/>
<stop offset="1" stop-color="#B9813A"/>
</linearGradient>
</defs>
</svg>
