<svg width="19" height="19" viewBox="0 0 19 19" fill="none" xmlns="http://www.w3.org/2000/svg">
<path d="M9.5 12.277L12.1212 14.2615C12.3019 14.3885 12.4843 14.3927 12.6683 14.274C12.8523 14.1555 12.909 13.9892 12.8385 13.775L11.8462 10.4923L14.4065 8.6715C14.5945 8.5315 14.6516 8.357 14.5778 8.148C14.5041 7.93917 14.3573 7.83475 14.1375 7.83475H11.0038L9.9365 4.3865C9.86 4.1725 9.71458 4.0655 9.50025 4.0655C9.28592 4.0655 9.14033 4.1725 9.0635 4.3865L7.99625 7.83475H4.8625C4.64267 7.83475 4.49592 7.93917 4.42225 8.148C4.34842 8.357 4.4055 8.5315 4.5935 8.6715L7.15375 10.4923L6.1615 13.775C6.091 13.9892 6.14775 14.1555 6.33175 14.274C6.51575 14.3927 6.69808 14.3885 6.87875 14.2615L9.5 12.277ZM9.50175 19C8.18775 19 6.95267 18.7507 5.7965 18.252C4.64033 17.7533 3.63467 17.0766 2.7795 16.2218C1.92433 15.3669 1.24725 14.3617 0.74825 13.206C0.249417 12.0503 0 10.8156 0 9.50175C0 8.18775 0.249333 6.95267 0.748 5.7965C1.24667 4.64033 1.92342 3.63467 2.77825 2.7795C3.63308 1.92433 4.63833 1.24725 5.794 0.74825C6.94967 0.249417 8.18442 0 9.49825 0C10.8123 0 12.0473 0.249333 13.2035 0.748C14.3597 1.24667 15.3653 1.92342 16.2205 2.77825C17.0757 3.63308 17.7528 4.63833 18.2518 5.794C18.7506 6.94967 19 8.18442 19 9.49825C19 10.8123 18.7507 12.0473 18.252 13.2035C17.7533 14.3597 17.0766 15.3653 16.2218 16.2205C15.3669 17.0757 14.3617 17.7528 13.206 18.2518C12.0503 18.7506 10.8156 19 9.50175 19Z" fill="url(#paint0_linear_297_16454)"/>
<defs>
<linearGradient id="paint0_linear_297_16454" x1="9.5" y1="0" x2="9.5" y2="19" gradientUnits="userSpaceOnUse">
<stop stop-color="#CB964E"/>
<stop offset="1" stop-color="#B9813A"/>
</linearGradient>
</defs>
</svg>
