<svg width="60" height="60" viewBox="0 0 60 60" fill="none" xmlns="http://www.w3.org/2000/svg">
<mask id="mask0_163_1390" style="mask-type:alpha" maskUnits="userSpaceOnUse" x="0" y="0" width="60" height="60">
<rect width="60" height="60" fill="#D9D9D9"/>
</mask>
<g mask="url(#mask0_163_1390)">
<path d="M12.2113 46.25H10.2888L9 41.25H6.25V30.7306C6.25 29.484 6.69146 28.4256 7.57438 27.5556C8.45771 26.6852 9.52271 26.25 10.7694 26.25H11.25V19.5194C11.25 18.2727 11.6915 17.2079 12.5744 16.325C13.4577 15.4417 14.5227 15 15.7694 15H44.2306C45.4773 15 46.5423 15.4417 47.4256 16.325C48.3085 17.2079 48.75 18.2727 48.75 19.5194V26.25H49.2306C50.4773 26.25 51.5423 26.6915 52.4256 27.5744C53.3085 28.4577 53.75 29.5227 53.75 30.7694V41.25H51L49.7113 46.25H47.7888L46.5 41.25H13.5L12.2113 46.25ZM31.875 26.25H45V19.5194C45 19.2952 44.9279 19.1108 44.7838 18.9663C44.6396 18.8221 44.4552 18.75 44.2306 18.75H31.875V26.25ZM15 26.25H28.125V18.75H15.7694C15.5448 18.75 15.3604 18.8221 15.2163 18.9663C15.0721 19.1108 15 19.2952 15 19.5194V26.25ZM10 37.5H50V30.7694C50 30.5448 49.9279 30.3604 49.7838 30.2162C49.6396 30.0721 49.4552 30 49.2306 30H10.7694C10.5448 30 10.3604 30.0721 10.2163 30.2162C10.0721 30.3604 10 30.5448 10 30.7694V37.5Z" fill="url(#paint0_linear_163_1390)"/>
</g>
<defs>
<linearGradient id="paint0_linear_163_1390" x1="30" y1="15" x2="30" y2="46.25" gradientUnits="userSpaceOnUse">
<stop stop-color="#CB964E"/>
<stop offset="1" stop-color="#B9813A"/>
</linearGradient>
</defs>
</svg>
