<svg width="60" height="60" viewBox="0 0 60 60" fill="none" xmlns="http://www.w3.org/2000/svg">
<mask id="mask0_163_1444" style="mask-type:alpha" maskUnits="userSpaceOnUse" x="0" y="0" width="60" height="60">
<rect width="60" height="60" fill="#D9D9D9"/>
</mask>
<g mask="url(#mask0_163_1444)">
<path d="M49.999 22.5V15.7694C49.999 15.5769 49.9188 15.4006 49.7584 15.2406C49.5984 15.0802 49.4221 15 49.2297 15H42.499V11.25H49.2297C50.4926 11.25 51.5615 11.6875 52.4365 12.5625C53.3115 13.4375 53.749 14.5065 53.749 15.7694V22.5H49.999ZM6.24902 22.5V15.7694C6.24902 14.5065 6.68652 13.4375 7.56152 12.5625C8.43652 11.6875 9.50548 11.25 10.7684 11.25H17.499V15H10.7684C10.5759 15 10.3996 15.0802 10.2396 15.2406C10.0792 15.4006 9.99902 15.5769 9.99902 15.7694V22.5H6.24902ZM42.499 48.75V45H49.2297C49.4221 45 49.5984 44.9198 49.7584 44.7594C49.9188 44.5994 49.999 44.4231 49.999 44.2306V37.5H53.749V44.2306C53.749 45.4935 53.3115 46.5625 52.4365 47.4375C51.5615 48.3125 50.4926 48.75 49.2297 48.75H42.499ZM10.7684 48.75C9.50548 48.75 8.43652 48.3125 7.56152 47.4375C6.68652 46.5625 6.24902 45.4935 6.24902 44.2306V37.5H9.99902V44.2306C9.99902 44.4231 10.0792 44.5994 10.2396 44.7594C10.3996 44.9198 10.5759 45 10.7684 45H17.499V48.75H10.7684ZM16.0565 38.9425V21.0575H43.9415V38.9425H16.0565ZM19.8065 35.1925H40.1915V24.8075H19.8065V35.1925Z" fill="url(#paint0_linear_163_1444)"/>
</g>
<defs>
<linearGradient id="paint0_linear_163_1444" x1="29.999" y1="11.25" x2="29.999" y2="48.75" gradientUnits="userSpaceOnUse">
<stop stop-color="#CB964E"/>
<stop offset="1" stop-color="#B9813A"/>
</linearGradient>
</defs>
</svg>
