<svg width="60" height="60" viewBox="0 0 60 60" fill="none" xmlns="http://www.w3.org/2000/svg">
<mask id="mask0_163_1408" style="mask-type:alpha" maskUnits="userSpaceOnUse" x="0" y="0" width="60" height="60">
<rect width="60" height="60" fill="#D9D9D9"/>
</mask>
<g mask="url(#mask0_163_1408)">
<path d="M29.9996 27.3557C28.0925 27.3557 26.47 26.6867 25.1321 25.3488C23.7937 24.0105 23.1246 22.3878 23.1246 20.4807C23.1246 18.5736 23.7937 16.9511 25.1321 15.6132C26.47 14.2748 28.0925 13.6057 29.9996 13.6057C31.9067 13.6057 33.5292 14.2748 34.8671 15.6132C36.2054 16.9511 36.8746 18.5736 36.8746 20.4807C36.8746 22.3878 36.2054 24.0105 34.8671 25.3488C33.5292 26.6867 31.9067 27.3557 29.9996 27.3557ZM29.9996 23.6057C30.8683 23.6057 31.6062 23.3021 32.2133 22.6951C32.8208 22.0876 33.1246 21.3494 33.1246 20.4807C33.1246 19.6124 32.8208 18.8744 32.2133 18.2669C31.6062 17.6594 30.8683 17.3557 29.9996 17.3557C29.1308 17.3557 28.3929 17.6594 27.7858 18.2669C27.1783 18.8744 26.8746 19.6124 26.8746 20.4807C26.8746 21.3494 27.1783 22.0876 27.7858 22.6951C28.3929 23.3021 29.1308 23.6057 29.9996 23.6057ZM15.6246 41.3944V37.2694C15.6246 36.4744 15.8152 35.7436 16.1964 35.0769C16.5781 34.4103 17.1119 33.8717 17.7977 33.4613C19.6248 32.3942 21.5558 31.5746 23.5908 31.0026C25.6262 30.4305 27.7625 30.1444 29.9996 30.1444C32.2208 30.1444 34.3531 30.4305 36.3964 31.0026C38.4394 31.5746 40.3744 32.3942 42.2014 33.4613C42.8714 33.8717 43.401 34.4142 43.7902 35.0888C44.1798 35.7634 44.3746 36.4903 44.3746 37.2694V41.3944H15.6246ZM29.9996 33.8944C28.2112 33.8944 26.4404 34.1346 24.6871 34.6151C22.9337 35.0959 21.2398 35.8011 19.6052 36.7307V37.6682H40.3939V36.7069C38.7752 35.7774 37.0852 35.0761 35.3239 34.6032C33.5627 34.1307 31.7879 33.8944 29.9996 33.8944ZM53.0621 20.3751C51.7704 17.3176 49.9644 14.6326 47.6439 12.3201C45.3235 10.0076 42.6504 8.21339 39.6246 6.93756L41.0814 3.46631C44.6519 4.98256 47.7304 7.03235 50.3171 9.61568C52.9033 12.199 54.9833 15.2998 56.5571 18.9182L53.0621 20.3751ZM6.93707 20.3751L3.46582 18.9182C5.00749 15.3157 7.07165 12.2253 9.65832 9.64693C12.245 7.06818 15.3314 5.00798 18.9177 3.46631L20.3746 6.93756C17.3329 8.22922 14.6558 10.0313 12.3433 12.3438C10.0308 14.6563 8.22874 17.3334 6.93707 20.3751ZM18.8939 56.5338C15.3394 55.0496 12.2527 52.9838 9.63394 50.3363C7.01561 47.6892 4.95957 44.5963 3.46582 41.0576L6.93707 39.6251C8.22874 42.6667 10.0308 45.3438 12.3433 47.6563C14.6558 49.9688 17.3329 51.7709 20.3746 53.0626L18.8939 56.5338ZM41.0571 56.5338L39.6246 53.0626C42.6662 51.7709 45.3433 49.9688 47.6558 47.6563C49.9683 45.3438 51.7704 42.6667 53.0621 39.6251L56.5333 41.0819C55.0171 44.6524 52.9473 47.7428 50.3239 50.3532C47.7006 52.964 44.6116 55.0242 41.0571 56.5338Z" fill="url(#paint0_linear_163_1408)"/>
</g>
<defs>
<linearGradient id="paint0_linear_163_1408" x1="30.0114" y1="3.46631" x2="30.0114" y2="56.5338" gradientUnits="userSpaceOnUse">
<stop stop-color="#CB964E"/>
<stop offset="1" stop-color="#B9813A"/>
</linearGradient>
</defs>
</svg>
