<svg width="24" height="24" viewBox="0 0 24 24" fill="none" xmlns="http://www.w3.org/2000/svg">
<mask id="mask0_167_687" style="mask-type:alpha" maskUnits="userSpaceOnUse" x="0" y="0" width="24" height="24">
<rect width="24" height="24" fill="#D9D9D9"/>
</mask>
<g mask="url(#mask0_167_687)">
<path d="M11.999 14.7768L14.6203 16.7613C14.8009 16.8883 14.9833 16.8924 15.1673 16.7738C15.3513 16.6553 15.408 16.4889 15.3375 16.2748L14.3453 12.992L16.9055 11.1713C17.0935 11.0313 17.1506 10.8568 17.0768 10.6478C17.0031 10.4389 16.8564 10.3345 16.6365 10.3345H13.5028L12.4355 6.88626C12.359 6.67226 12.2136 6.56526 11.9993 6.56526C11.7849 6.56526 11.6394 6.67226 11.5625 6.88626L10.4953 10.3345H7.36152C7.14169 10.3345 6.99494 10.4389 6.92127 10.6478C6.84744 10.8568 6.90452 11.0313 7.09252 11.1713L9.65277 12.992L8.66052 16.2748C8.59002 16.4889 8.64677 16.6553 8.83077 16.7738C9.01477 16.8924 9.19711 16.8883 9.37777 16.7613L11.999 14.7768ZM12.0008 21.4998C10.6868 21.4998 9.45169 21.2504 8.29552 20.7518C7.13936 20.2531 6.13369 19.5763 5.27852 18.7215C4.42336 17.8667 3.74627 16.8614 3.24727 15.7058C2.74844 14.5501 2.49902 13.3153 2.49902 12.0015C2.49902 10.6875 2.74836 9.45242 3.24702 8.29626C3.74569 7.14009 4.42244 6.13442 5.27727 5.27926C6.13211 4.42409 7.13736 3.74701 8.29302 3.24801C9.44869 2.74917 10.6834 2.49976 11.9973 2.49976C13.3113 2.49976 14.5464 2.74909 15.7025 3.24776C16.8587 3.74642 17.8644 4.42317 18.7195 5.27801C19.5747 6.13284 20.2518 7.13809 20.7508 8.29376C21.2496 9.44942 21.499 10.6842 21.499 11.998C21.499 13.312 21.2497 14.5471 20.751 15.7033C20.2524 16.8594 19.5756 17.8651 18.7208 18.7203C17.8659 19.5754 16.8607 20.2525 15.705 20.7515C14.5494 21.2503 13.3146 21.4998 12.0008 21.4998Z" fill="url(#paint0_linear_167_687)"/>
</g>
<defs>
<linearGradient id="paint0_linear_167_687" x1="11.999" y1="2.49976" x2="11.999" y2="21.4998" gradientUnits="userSpaceOnUse">
<stop stop-color="#CB964E"/>
<stop offset="1" stop-color="#B9813A"/>
</linearGradient>
</defs>
</svg>
