<svg width="36" height="36" viewBox="0 0 36 36" fill="none" xmlns="http://www.w3.org/2000/svg">
<path d="M6.8745 25.9814C5.3295 24.3404 4.5 22.4999 4.5 19.5164C4.5 14.2664 8.1855 9.56087 13.545 7.23438L14.8845 9.30138C9.882 12.0074 8.904 15.5189 8.514 17.7329C9.3195 17.3159 10.374 17.1704 11.4075 17.2664C14.1135 17.5169 16.2465 19.7384 16.2465 22.4999C16.2465 23.8923 15.6934 25.2276 14.7088 26.2122C13.7242 27.1968 12.3889 27.7499 10.9965 27.7499C9.387 27.7499 7.848 27.0149 6.8745 25.9814ZM21.8745 25.9814C20.3295 24.3404 19.5 22.4999 19.5 19.5164C19.5 14.2664 23.1855 9.56087 28.545 7.23438L29.8845 9.30138C24.882 12.0074 23.904 15.5189 23.514 17.7329C24.3195 17.3159 25.374 17.1704 26.4075 17.2664C29.1135 17.5169 31.2465 19.7384 31.2465 22.4999C31.2465 23.8923 30.6934 25.2276 29.7088 26.2122C28.7242 27.1968 27.3889 27.7499 25.9965 27.7499C24.387 27.7499 22.848 27.0149 21.8745 25.9814Z" fill="#0B2639"/>
</svg>
