<svg width="68" height="12" viewBox="0 0 68 12" fill="none" xmlns="http://www.w3.org/2000/svg">
<path d="M6 3.11392e-08L7.34708 4.1459L11.7063 4.1459L8.17963 6.7082L9.52671 10.8541L6 8.2918L2.47329 10.8541L3.82037 6.7082L0.293661 4.1459L4.65292 4.1459L6 3.11392e-08Z" fill="#FFD600"/>
<path d="M20 3.11392e-08L21.3471 4.1459L25.7063 4.1459L22.1796 6.7082L23.5267 10.8541L20 8.2918L16.4733 10.8541L17.8204 6.7082L14.2937 4.1459L18.6529 4.1459L20 3.11392e-08Z" fill="#FFD600"/>
<path d="M34 3.11392e-08L35.3471 4.1459L39.7063 4.1459L36.1796 6.7082L37.5267 10.8541L34 8.2918L30.4733 10.8541L31.8204 6.7082L28.2937 4.1459L32.6529 4.1459L34 3.11392e-08Z" fill="#FFD600"/>
<path d="M48 3.11392e-08L49.3471 4.1459L53.7063 4.1459L50.1796 6.7082L51.5267 10.8541L48 8.2918L44.4733 10.8541L45.8204 6.7082L42.2937 4.1459L46.6529 4.1459L48 3.11392e-08Z" fill="#FFD600"/>
<path d="M62 3.11392e-08L63.3471 4.1459L67.7063 4.1459L64.1796 6.7082L65.5267 10.8541L62 8.2918L58.4733 10.8541L59.8204 6.7082L56.2937 4.1459L60.6529 4.1459L62 3.11392e-08Z" fill="url(#paint0_linear_278_1763)"/>
<defs>
<linearGradient id="paint0_linear_278_1763" x1="68" y1="6" x2="58" y2="6" gradientUnits="userSpaceOnUse">
<stop offset="0.554999" stop-color="white"/>
<stop offset="0.555099" stop-color="#FFD600"/>
</linearGradient>
</defs>
</svg>
