<svg width="20" height="20" viewBox="0 0 20 20" fill="none" xmlns="http://www.w3.org/2000/svg">
<mask id="mask0_297_16442" style="mask-type:alpha" maskUnits="userSpaceOnUse" x="0" y="0" width="20" height="20">
<rect width="20" height="20" fill="#D9D9D9"/>
</mask>
<g mask="url(#mask0_297_16442)">
<path d="M2.70079 14.5835C2.28649 14.5835 1.93184 14.436 1.63684 14.141C1.34184 13.846 1.19434 13.4913 1.19434 13.077V3.58995C1.19434 3.17565 1.34184 2.821 1.63684 2.526C1.93184 2.231 2.28649 2.0835 2.70079 2.0835H15.5212C15.9355 2.0835 16.2902 2.231 16.5852 2.526C16.8802 2.821 17.0277 3.17565 17.0277 3.58995V7.03537C17.0277 7.21245 16.9677 7.36093 16.8479 7.48079C16.728 7.60051 16.5795 7.66037 16.4023 7.66037C16.2252 7.66037 16.0768 7.60051 15.957 7.48079C15.8375 7.36093 15.7777 7.21245 15.7777 7.03537V4.53537L9.51642 8.5435C9.45225 8.57975 9.386 8.60829 9.31767 8.62912C9.24934 8.64995 9.18045 8.66037 9.111 8.66037C9.04156 8.66037 8.9726 8.64995 8.90413 8.62912C8.83579 8.60829 8.76961 8.57975 8.70559 8.5435L2.44434 4.53537V13.077C2.44434 13.1519 2.46836 13.2134 2.51642 13.2614C2.56447 13.3095 2.62593 13.3335 2.70079 13.3335H10.457C10.6341 13.3335 10.7826 13.3934 10.9025 13.5133C11.0222 13.6332 11.082 13.7816 11.082 13.9587C11.082 14.1359 11.0222 14.2843 10.9025 14.4039C10.7826 14.5236 10.6341 14.5835 10.457 14.5835H2.70079ZM9.111 7.50016L15.6493 3.3335H2.57246L9.111 7.50016ZM2.44434 4.72766V3.78891V3.79975V3.78308V4.72766ZM15.7777 17.9008C14.9411 17.9008 14.2272 17.6051 13.6358 17.0137C13.0444 16.4225 12.7487 15.7086 12.7487 14.872V11.122C12.7487 10.6105 12.9253 10.1781 13.2785 9.82475C13.6317 9.47155 14.0641 9.29496 14.5758 9.29496C15.0873 9.29496 15.5197 9.47155 15.8729 9.82475C16.2261 10.1781 16.4027 10.6105 16.4027 11.122V14.247C16.4027 14.4241 16.3427 14.5725 16.2229 14.6922C16.103 14.8121 15.9545 14.872 15.7773 14.872C15.6002 14.872 15.4518 14.8121 15.332 14.6922C15.2125 14.5725 15.1527 14.4241 15.1527 14.247V11.122C15.1527 10.9627 15.0963 10.8268 14.9835 10.7141C14.8709 10.6013 14.735 10.545 14.5758 10.545C14.4165 10.545 14.2805 10.6013 14.1679 10.7141C14.0551 10.8268 13.9987 10.9627 13.9987 11.122V14.872C13.9987 15.3612 14.173 15.78 14.5216 16.1283C14.8702 16.4766 15.2893 16.6508 15.7789 16.6508C16.2685 16.6508 16.6871 16.4766 17.0348 16.1283C17.3825 15.78 17.5564 15.3612 17.5564 14.872V12.1635C17.5564 11.9866 17.6164 11.8382 17.7362 11.7183C17.8561 11.5986 18.0046 11.5387 18.1818 11.5387C18.3589 11.5387 18.5073 11.5986 18.627 11.7183C18.7466 11.8382 18.8064 11.9866 18.8064 12.1635V14.872C18.8064 15.7086 18.5107 16.4225 17.9193 17.0137C17.3281 17.6051 16.6142 17.9008 15.7777 17.9008Z" fill="url(#paint0_linear_297_16442)"/>
</g>
<defs>
<linearGradient id="paint0_linear_297_16442" x1="10.0004" y1="2.0835" x2="10.0004" y2="17.9008" gradientUnits="userSpaceOnUse">
<stop stop-color="#CB964E"/>
<stop offset="1" stop-color="#B9813A"/>
</linearGradient>
</defs>
</svg>
