<svg width="24" height="24" viewBox="0 0 24 24" fill="none" xmlns="http://www.w3.org/2000/svg">
<path d="M13 0H11C10.2044 0 9.44129 0.31607 8.87868 0.87868C8.31607 1.44129 8 2.20435 8 3V4C6.93913 4 5.92172 4.42143 5.17157 5.17157C4.42143 5.92172 4 6.93913 4 8V20C4 21.0609 4.42143 22.0783 5.17157 22.8284C5.92172 23.5786 6.93913 24 8 24H16C17.0609 24 18.0783 23.5786 18.8284 22.8284C19.5786 22.0783 20 21.0609 20 20V8C20 6.93913 19.5786 5.92172 18.8284 5.17157C18.0783 4.42143 17.0609 4 16 4V3C16 2.20435 15.6839 1.44129 15.1213 0.87868C14.5587 0.31607 13.7956 0 13 0ZM18 8V20C18 20.5304 17.7893 21.0391 17.4142 21.4142C17.0391 21.7893 16.5304 22 16 22H8C7.46957 22 6.96086 21.7893 6.58579 21.4142C6.21071 21.0391 6 20.5304 6 20V8C6 7.46957 6.21071 6.96086 6.58579 6.58579C6.96086 6.21071 7.46957 6 8 6H16C16.5304 6 17.0391 6.21071 17.4142 6.58579C17.7893 6.96086 18 7.46957 18 8ZM10 4V3C10 2.73478 10.1054 2.48043 10.2929 2.29289C10.4804 2.10536 10.7348 2 11 2H13C13.2652 2 13.5196 2.10536 13.7071 2.29289C13.8946 2.48043 14 2.73478 14 3V4H10Z" fill="url(#paint0_linear_267_3133)"/>
<path d="M15 18H9C8.73478 18 8.48043 18.1054 8.29289 18.2929C8.10536 18.4804 8 18.7348 8 19C8 19.2652 8.10536 19.5196 8.29289 19.7071C8.48043 19.8946 8.73478 20 9 20H15C15.2652 20 15.5196 19.8946 15.7071 19.7071C15.8946 19.5196 16 19.2652 16 19C16 18.7348 15.8946 18.4804 15.7071 18.2929C15.5196 18.1054 15.2652 18 15 18Z" fill="url(#paint1_linear_267_3133)"/>
<path d="M15 13H9C8.73478 13 8.48043 13.1054 8.29289 13.2929C8.10536 13.4804 8 13.7348 8 14C8 14.2652 8.10536 14.5196 8.29289 14.7071C8.48043 14.8946 8.73478 15 9 15H15C15.2652 15 15.5196 14.8946 15.7071 14.7071C15.8946 14.5196 16 14.2652 16 14C16 13.7348 15.8946 13.4804 15.7071 13.2929C15.5196 13.1054 15.2652 13 15 13Z" fill="url(#paint2_linear_267_3133)"/>
<path d="M15 8H9C8.73478 8 8.48043 8.10536 8.29289 8.29289C8.10536 8.48043 8 8.73478 8 9C8 9.26522 8.10536 9.51957 8.29289 9.70711C8.48043 9.89464 8.73478 10 9 10H15C15.2652 10 15.5196 9.89464 15.7071 9.70711C15.8946 9.51957 16 9.26522 16 9C16 8.73478 15.8946 8.48043 15.7071 8.29289C15.5196 8.10536 15.2652 8 15 8Z" fill="url(#paint3_linear_267_3133)"/>
<defs>
<linearGradient id="paint0_linear_267_3133" x1="12" y1="0" x2="12" y2="24" gradientUnits="userSpaceOnUse">
<stop stop-color="#CB964E"/>
<stop offset="1" stop-color="#B9813A"/>
</linearGradient>
<linearGradient id="paint1_linear_267_3133" x1="12" y1="18" x2="12" y2="20" gradientUnits="userSpaceOnUse">
<stop stop-color="#CB964E"/>
<stop offset="1" stop-color="#B9813A"/>
</linearGradient>
<linearGradient id="paint2_linear_267_3133" x1="12" y1="13" x2="12" y2="15" gradientUnits="userSpaceOnUse">
<stop stop-color="#CB964E"/>
<stop offset="1" stop-color="#B9813A"/>
</linearGradient>
<linearGradient id="paint3_linear_267_3133" x1="12" y1="8" x2="12" y2="10" gradientUnits="userSpaceOnUse">
<stop stop-color="#CB964E"/>
<stop offset="1" stop-color="#B9813A"/>
</linearGradient>
</defs>
</svg>
