<svg width="24" height="24" viewBox="0 0 24 24" fill="none" xmlns="http://www.w3.org/2000/svg">
<path fill-rule="evenodd" clip-rule="evenodd" d="M3.74475 11.1151V13.9944C3.74475 18.2604 7.42875 21.7501 11.9978 21.7501C16.566 21.7501 20.25 18.2604 20.25 13.9944V11.1151C20.5613 11.0041 20.8478 10.8249 21.0855 10.5864C21.5078 10.1649 21.7448 9.59186 21.7448 8.99561V4.49561C21.7448 3.89861 21.5078 3.32636 21.0855 2.90411C20.664 2.48261 20.0918 2.24561 19.4948 2.24561C16.1055 2.24561 7.88925 2.24561 4.5 2.24561C3.903 2.24561 3.33075 2.48261 2.90925 2.90411C2.487 3.32636 2.25 3.89861 2.25 4.49561C2.25 5.80286 2.25 7.68836 2.25 8.99561C2.25 9.59186 2.487 10.1649 2.90925 10.5864C3.147 10.8249 3.4335 11.0041 3.74475 11.1151ZM5.24475 11.2456V13.9944C5.24475 17.4616 8.2845 20.2501 11.9978 20.2501C15.7103 20.2501 18.75 17.4616 18.75 13.9944V11.2456H5.24475ZM20.2448 4.49561V8.99561C20.2448 9.19436 20.166 9.38486 20.025 9.52586C19.8848 9.66611 19.6935 9.74561 19.4948 9.74561H4.5C4.30125 9.74561 4.11 9.66611 3.96975 9.52586C3.82875 9.38486 3.75 9.19436 3.75 8.99561V4.49561C3.75 4.29686 3.82875 4.10561 3.96975 3.96536C4.11 3.82436 4.30125 3.74561 4.5 3.74561H19.4948C19.6935 3.74561 19.8848 3.82436 20.025 3.96536C20.166 4.10561 20.2448 4.29686 20.2448 4.49561Z" fill="url(#paint0_linear_267_3138)"/>
<path fill-rule="evenodd" clip-rule="evenodd" d="M11.9941 12.75C10.3381 12.75 8.99414 14.094 8.99414 15.75C8.99414 17.406 10.3381 18.75 11.9941 18.75C13.6501 18.75 14.9941 17.406 14.9941 15.75C14.9941 14.094 13.6501 12.75 11.9941 12.75ZM11.9941 14.25C12.8221 14.25 13.4941 14.922 13.4941 15.75C13.4941 16.578 12.8221 17.25 11.9941 17.25C11.1661 17.25 10.4941 16.578 10.4941 15.75C10.4941 14.922 11.1661 14.25 11.9941 14.25Z" fill="url(#paint1_linear_267_3138)"/>
<defs>
<linearGradient id="paint0_linear_267_3138" x1="11.9974" y1="2.24561" x2="11.9974" y2="21.7501" gradientUnits="userSpaceOnUse">
<stop stop-color="#CB964E"/>
<stop offset="1" stop-color="#B9813A"/>
</linearGradient>
<linearGradient id="paint1_linear_267_3138" x1="11.9941" y1="12.75" x2="11.9941" y2="18.75" gradientUnits="userSpaceOnUse">
<stop stop-color="#CB964E"/>
<stop offset="1" stop-color="#B9813A"/>
</linearGradient>
</defs>
</svg>
