<svg width="24" height="24" viewBox="0 0 24 24" fill="none" xmlns="http://www.w3.org/2000/svg">
<path d="M24 18.1159C22.8876 18.1159 22.3037 17.6291 21.835 17.2381C21.4363 16.9058 21.1732 16.6862 20.5711 16.6862C19.9693 16.6862 19.706 16.9057 19.3075 17.2381C18.8385 17.6291 18.2549 18.1159 17.1422 18.1159C16.0298 18.1159 15.4459 17.6291 14.9772 17.238C14.5788 16.9058 14.3154 16.6862 13.7136 16.6862C13.1118 16.6862 12.8488 16.9057 12.4503 17.238C11.9813 17.6291 11.3977 18.1159 10.285 18.1159C9.1726 18.1159 8.589 17.6291 8.12 17.238C7.7216 16.9058 7.4585 16.6862 6.8567 16.6862C6.2549 16.6862 5.9919 16.9057 5.5934 17.238C5.1244 17.6291 4.5408 18.1159 3.4281 18.1159C2.3157 18.1159 1.7321 17.6291 1.2634 17.238C0.8648 16.9058 0.6018 16.6862 0 16.6862V15.2943C1.1124 15.2943 1.6963 15.7811 2.165 16.1723C2.5634 16.5045 2.8265 16.724 3.428 16.724C4.0298 16.724 4.2931 16.5046 4.6916 16.1723C5.1604 15.7811 5.7442 15.2943 6.8566 15.2943C7.969 15.2943 8.5526 15.7811 9.0216 16.1723C9.42 16.5045 9.6831 16.724 10.2849 16.724C10.8867 16.724 11.15 16.5046 11.5485 16.1723C12.0175 15.7811 12.6011 15.2943 13.7135 15.2943C14.8259 15.2943 15.4098 15.7811 15.8788 16.1723C16.2772 16.5045 16.5403 16.724 17.1421 16.724C17.7442 16.724 18.0072 16.5046 18.4057 16.1722C18.8747 15.7811 19.4586 15.2943 20.571 15.2943C21.6837 15.2943 22.2673 15.7811 22.7363 16.1722C23.1347 16.5045 23.3981 16.724 23.9999 16.724V18.1159H24ZM18.8701 7.2002C17.1972 7.2002 15.8411 8.5468 15.8411 10.2075C15.8411 11.8684 17.1973 13.2151 18.8701 13.2151C20.5432 13.2151 21.8994 11.8684 21.8994 10.2075C21.8994 8.5468 20.5433 7.2002 18.8701 7.2002ZM11.0083 10.7366L12.501 11.5744L8.5518 14.6847C8.7211 14.8033 8.8714 14.9278 9.0112 15.0444C9.426 15.3903 9.7 15.6188 10.3266 15.6188C10.953 15.6188 11.2272 15.3903 11.642 15.0444C12.1301 14.6371 12.738 14.1302 13.8961 14.1302C15.0545 14.1302 15.6621 14.637 16.1505 15.0444C16.2785 15.1512 16.3934 15.2467 16.5091 15.328L16.9319 14.5504L14.3907 10.4424L11.1628 9.0239L6.3757 11.2834L7.1468 12.2678L11.0083 10.7366ZM24 19.4084C23.3982 19.4084 23.1349 19.1889 22.7364 18.8565C22.2674 18.4654 21.6838 17.9786 20.5711 17.9786C19.4587 17.9786 18.8748 18.4654 18.4058 18.8565C18.0074 19.1888 17.7443 19.4084 17.1422 19.4084C16.5404 19.4084 16.2774 19.1889 15.8789 18.8566C15.4099 18.4654 14.826 17.9786 13.7136 17.9786C12.6012 17.9786 12.0176 18.4654 11.5486 18.8566C11.1502 19.1888 10.8868 19.4084 10.285 19.4084C9.6832 19.4084 9.4202 19.1889 9.0217 18.8566C8.5527 18.4654 7.9691 17.9786 6.8567 17.9786C5.7443 17.9786 5.1604 18.4654 4.6917 18.8566C4.2933 19.1888 4.0299 19.4084 3.4281 19.4084C2.8266 19.4084 2.5635 19.1889 2.1651 18.8566C1.6963 18.4654 1.1125 17.9786 0.0001 17.9786V19.3705C0.6019 19.3705 0.8649 19.59 1.2634 19.9223C1.732 20.3134 2.3156 20.8002 3.428 20.8002C4.5407 20.8002 5.1243 20.3134 5.5933 19.9223C5.9917 19.5901 6.2548 19.3705 6.8566 19.3705C7.4584 19.3705 7.7214 19.59 8.1199 19.9223C8.5889 20.3134 9.1725 20.8002 10.2849 20.8002C11.3976 20.8002 11.9812 20.3134 12.4502 19.9223C12.8486 19.5901 13.1117 19.3705 13.7135 19.3705C14.3153 19.3705 14.5786 19.59 14.9771 19.9223C15.4459 20.3134 16.0297 20.8002 17.1421 20.8002C18.2548 20.8002 18.8384 20.3134 19.3074 19.9224C19.7058 19.5901 19.9692 19.3705 20.571 19.3705C21.1731 19.3705 21.4361 19.59 21.8349 19.9224C22.3037 20.3134 22.8875 20.8002 23.9999 20.8002V19.4084H24Z" fill="url(#paint0_linear_265_3090)"/>
<defs>
<linearGradient id="paint0_linear_265_3090" x1="12" y1="7.2002" x2="12" y2="20.8002" gradientUnits="userSpaceOnUse">
<stop stop-color="#CB964E"/>
<stop offset="1" stop-color="#B9813A"/>
</linearGradient>
</defs>
</svg>
