<svg width="24" height="24" viewBox="0 0 24 24" fill="none" xmlns="http://www.w3.org/2000/svg">
<path d="M22.8637 9.1205L21.3637 5.8705C21.2425 5.61083 21.0499 5.39105 20.8083 5.23689C20.5668 5.08273 20.2863 5.00056 19.9997 5H18.0927L13.6547 3.293C13.5712 3.261 13.4857 3.237 13.4012 3.2085V2C13.4012 1.73478 13.2959 1.48043 13.1083 1.29289C12.9208 1.10536 12.6664 1 12.4012 1H10.4997C10.2345 1 9.98015 1.10536 9.79262 1.29289C9.60508 1.48043 9.49972 1.73478 9.49972 2V3.2415C9.44972 3.2595 9.39622 3.2735 9.34522 3.2915L4.90672 5H1.49972C1.40292 5.00005 1.30822 5.02821 1.2271 5.08104C1.14599 5.13388 1.08196 5.20912 1.04278 5.29764C1.0036 5.38616 0.990962 5.48415 1.0064 5.57972C1.02183 5.67528 1.06467 5.76431 1.12972 5.836L2.72972 7.599C3.52792 8.47772 4.43529 9.25066 5.42972 9.899L5.61372 10.019L6.51372 13.619C6.54037 13.7278 6.60276 13.8244 6.69088 13.8935C6.779 13.9626 6.88775 14.0001 6.99972 14H7.49972V15C7.39107 15.0001 7.28539 15.0356 7.1987 15.101C7.112 15.1665 7.049 15.2585 7.01922 15.363L5.01922 22.363C4.99804 22.4374 4.99439 22.5156 5.00856 22.5917C5.02274 22.6677 5.05435 22.7394 5.10092 22.8011C5.14749 22.8628 5.20774 22.9129 5.27694 22.9474C5.34614 22.982 5.4224 22.9999 5.49972 23H17.4997C17.5771 22.9999 17.6533 22.982 17.7225 22.9474C17.7917 22.9129 17.852 22.8628 17.8985 22.8011C17.9451 22.7394 17.9767 22.6677 17.9909 22.5917C18.0051 22.5156 18.0014 22.4374 17.9802 22.363L15.9802 15.363C15.9505 15.2585 15.8875 15.1665 15.8008 15.101C15.7141 15.0356 15.6084 15.0001 15.4997 15V14H15.9997C16.1113 14 16.2196 13.9626 16.3075 13.894C16.3953 13.8253 16.4577 13.7292 16.4847 13.621L17.8902 8H19.0402L19.8357 9.7215L17.6427 14.1165C17.5959 14.2104 17.5797 14.3166 17.5966 14.4202C17.6135 14.5237 17.6625 14.6193 17.7367 14.6935L19.2267 16.1835C19.3205 16.2773 19.4476 16.33 19.5802 16.33C19.607 16.3301 19.6338 16.3279 19.6602 16.3235C19.7385 16.3109 19.8127 16.2798 19.8765 16.2328C19.9404 16.1859 19.9923 16.1244 20.0277 16.0535L22.8427 10.4185C22.9432 10.2175 22.9973 9.99655 23.0009 9.77189C23.0046 9.54722 22.9577 9.32461 22.8637 9.1205ZM10.4997 2H12.3997V2.9665C11.7697 2.86964 11.1283 2.87419 10.4997 2.98V2ZM9.70422 4.2265C10.8597 3.78049 12.1398 3.78049 13.2952 4.2265L15.3062 5H7.69322L9.70422 4.2265ZM10.4412 13L9.56622 6H13.4332L12.5582 13H10.4412ZM3.47072 6.927L2.62922 6H4.60922L5.24572 8.546C4.60511 8.06257 4.01088 7.52056 3.47072 6.927ZM5.64022 6H8.55823L9.43322 13H7.39022L5.64022 6ZM7.87672 16H9.92322L9.06622 22H6.16272L7.87672 16ZM12.0662 16L12.9232 22H10.0762L10.9332 16H12.0662ZM16.8367 22H13.9332L13.0762 16H15.1227L16.8367 22ZM14.4997 15H8.49972V14H14.4997V15ZM15.6092 13H13.5662L14.4412 6H17.3592L15.6092 13ZM21.9497 9.971L19.4447 14.986L18.6997 14.2405L20.8392 9.953C20.8726 9.88599 20.8905 9.81235 20.8917 9.73749C20.8928 9.66263 20.8771 9.58848 20.8457 9.5205L19.8152 7.2905C19.7751 7.20354 19.7108 7.12993 19.6301 7.07843C19.5493 7.02694 19.4555 6.99971 19.3597 7H18.1402L18.3902 6H19.9997C20.0953 6.00013 20.189 6.02741 20.2697 6.07866C20.3504 6.12991 20.4149 6.20303 20.4557 6.2895L21.9557 9.5395C21.9864 9.60747 22.0018 9.68135 22.0007 9.75592C21.9997 9.83048 21.9823 9.90391 21.9497 9.971Z" fill="url(#paint0_linear_265_3078)"/>
<defs>
<linearGradient id="paint0_linear_265_3078" x1="12.0006" y1="1" x2="12.0006" y2="23" gradientUnits="userSpaceOnUse">
<stop stop-color="#CB964E"/>
<stop offset="1" stop-color="#B9813A"/>
</linearGradient>
</defs>
</svg>
