<svg width="24" height="24" viewBox="0 0 24 24" fill="none" xmlns="http://www.w3.org/2000/svg">
<path d="M13.3977 16.529C17.3492 11.2774 22.3867 5.78361 20.2692 3.73264C18.1236 1.54736 10.3768 4.54881 5.73596 8.7987C0.901318 12.8531 3.99699 17.3654 4.88797 18.2676C5.90085 19.2676 9.67674 21.8728 13.3977 16.529Z" stroke="url(#paint0_linear_265_3092)" stroke-width="1.5" stroke-miterlimit="10" stroke-linecap="round"/>
<path d="M15.879 6.88086C10.8638 10.8468 6.45149 15.6724 3 20.9996" stroke="url(#paint1_linear_265_3092)" stroke-width="1.5" stroke-miterlimit="10" stroke-linecap="round"/>
<path d="M11.3926 7.70459C11.6199 8.51457 11.85 9.32991 12.0856 10.1539C12.9315 10.4056 13.777 10.6548 14.6263 10.9052" stroke="url(#paint2_linear_265_3092)" stroke-width="1.5" stroke-miterlimit="10" stroke-linecap="round"/>
<path d="M8.16406 9.77344C8.67112 10.676 9.18562 11.5884 9.70963 12.5125C10.6184 13.0323 11.5201 13.5435 12.4177 14.0477" stroke="url(#paint3_linear_265_3092)" stroke-width="1.5" stroke-miterlimit="10" stroke-linecap="round"/>
<path d="M5.98438 12.8921C6.3782 13.6876 6.78319 14.4955 7.20182 15.3171C7.97791 15.7121 8.74366 16.0952 9.50116 16.4688" stroke="url(#paint4_linear_265_3092)" stroke-width="1.5" stroke-miterlimit="10" stroke-linecap="round"/>
<defs>
<linearGradient id="paint0_linear_265_3092" x1="11.93" y1="3" x2="11.93" y2="19.788" gradientUnits="userSpaceOnUse">
<stop stop-color="#CB964E"/>
<stop offset="1" stop-color="#B9813A"/>
</linearGradient>
<linearGradient id="paint1_linear_265_3092" x1="9.43951" y1="6.88086" x2="9.43951" y2="20.9996" gradientUnits="userSpaceOnUse">
<stop stop-color="#CB964E"/>
<stop offset="1" stop-color="#B9813A"/>
</linearGradient>
<linearGradient id="paint2_linear_265_3092" x1="13.0094" y1="7.70459" x2="13.0094" y2="10.9052" gradientUnits="userSpaceOnUse">
<stop stop-color="#CB964E"/>
<stop offset="1" stop-color="#B9813A"/>
</linearGradient>
<linearGradient id="paint3_linear_265_3092" x1="10.2909" y1="9.77344" x2="10.2909" y2="14.0477" gradientUnits="userSpaceOnUse">
<stop stop-color="#CB964E"/>
<stop offset="1" stop-color="#B9813A"/>
</linearGradient>
<linearGradient id="paint4_linear_265_3092" x1="7.74277" y1="12.8921" x2="7.74277" y2="16.4688" gradientUnits="userSpaceOnUse">
<stop stop-color="#CB964E"/>
<stop offset="1" stop-color="#B9813A"/>
</linearGradient>
</defs>
</svg>
