<svg width="24" height="24" viewBox="0 0 24 24" fill="none" xmlns="http://www.w3.org/2000/svg">
<path d="M11.5703 2.0972L3.99414 5.70072C3.74926 5.81772 3.56244 6.02921 3.47656 6.28666C3.17415 7.19081 3 8.16287 3 9.17728C3 18.7292 11.6621 21.9429 11.6621 21.9429C11.8806 22.0213 12.1194 22.0213 12.3379 21.9429C12.3379 21.9429 21 18.7292 21 9.17728C21 8.16287 20.8258 7.19081 20.5234 6.28666C20.4375 6.02921 20.2507 5.81772 20.0059 5.70072L12.4297 2.0972C12.1662 1.9593 11.7892 1.97081 11.5703 2.0972ZM12 4.10892L18.6875 7.28666C18.8582 7.89552 19 8.51819 19 9.17728C19 16.9226 12.9273 19.5451 12 19.9058C11.0727 19.5451 5 16.9226 5 9.17728C5 8.51819 5.14185 7.89552 5.3125 7.28666L12 4.10892Z" fill="url(#paint0_linear_267_3142)"/>
<path d="M15.193 8.40981L11.5348 13.3981L9.75548 11.3454C9.39348 10.9287 8.7623 10.8841 8.34532 11.2457C7.92802 11.6072 7.88256 12.2384 8.24376 12.6559L10.8434 15.6559C11.2635 16.1415 12.0259 16.111 12.4059 15.5934L16.8063 9.59341C17.1334 9.14798 17.0371 8.52167 16.5914 8.19497C16.118 7.87418 15.5281 7.9287 15.193 8.40981Z" fill="url(#paint1_linear_267_3142)"/>
<defs>
<linearGradient id="paint0_linear_267_3142" x1="12" y1="1.99805" x2="12" y2="22.0017" gradientUnits="userSpaceOnUse">
<stop stop-color="#CB964E"/>
<stop offset="1" stop-color="#B9813A"/>
</linearGradient>
<linearGradient id="paint1_linear_267_3142" x1="12.5002" y1="7.99316" x2="12.5002" y2="16.0017" gradientUnits="userSpaceOnUse">
<stop stop-color="#CB964E"/>
<stop offset="1" stop-color="#B9813A"/>
</linearGradient>
</defs>
</svg>
