<svg width="36" height="36" viewBox="0 0 36 36" fill="none" xmlns="http://www.w3.org/2000/svg">
<path d="M27.002 17.9993C27.002 18.1829 26.929 18.3589 26.7993 18.4887C26.6695 18.6185 26.4934 18.6914 26.3099 18.6914C26.1263 18.6914 25.9503 18.6185 25.8205 18.4887C25.6907 18.3589 25.6178 18.1829 25.6178 17.9993C25.6178 17.9084 25.6357 17.8184 25.6704 17.7345C25.7052 17.6505 25.7562 17.5742 25.8205 17.5099C25.8847 17.4457 25.9611 17.3947 26.045 17.3599C26.129 17.3251 26.219 17.3072 26.3099 17.3072C26.4008 17.3072 26.4907 17.3251 26.5747 17.3599C26.6587 17.3947 26.735 17.4457 26.7993 17.5099C26.8635 17.5742 26.9145 17.6505 26.9493 17.7345C26.9841 17.8184 27.002 17.9084 27.002 17.9993Z" stroke="url(#paint0_linear_629_1042)" stroke-width="2" stroke-linecap="round" stroke-linejoin="round"/>
<path d="M10.3809 17.9993C10.3809 18.1829 10.308 18.3589 10.1782 18.4887C10.0484 18.6185 9.87232 18.6914 9.68877 18.6914C9.50522 18.6914 9.32917 18.6185 9.19938 18.4887C9.06959 18.3589 8.99668 18.1829 8.99668 17.9993C8.99668 17.9084 9.01457 17.8184 9.04935 17.7345C9.08413 17.6505 9.13511 17.5742 9.19938 17.5099C9.26365 17.4457 9.33996 17.3947 9.42392 17.3599C9.50789 17.3251 9.59788 17.3072 9.68877 17.3072C9.77966 17.3072 9.86965 17.3251 9.95362 17.3599C10.0376 17.3947 10.1139 17.4457 10.1782 17.5099C10.2424 17.5742 10.2934 17.6505 10.3282 17.7345C10.3629 17.8184 10.3809 17.9084 10.3809 17.9993Z" stroke="url(#paint1_linear_629_1042)" stroke-width="2" stroke-linecap="round" stroke-linejoin="round"/>
<path d="M18.6895 17.9993C18.6895 18.1829 18.6165 18.3589 18.4868 18.4887C18.357 18.6185 18.1809 18.6914 17.9974 18.6914C17.8138 18.6914 17.6378 18.6185 17.508 18.4887C17.3782 18.3589 17.3053 18.1829 17.3053 17.9993C17.3053 17.9084 17.3232 17.8184 17.3579 17.7345C17.3927 17.6505 17.4437 17.5742 17.508 17.5099C17.5722 17.4457 17.6486 17.3947 17.7325 17.3599C17.8165 17.3251 17.9065 17.3072 17.9974 17.3072C18.0883 17.3072 18.1782 17.3251 18.2622 17.3599C18.3462 17.3947 18.4225 17.4457 18.4868 17.5099C18.551 17.5742 18.602 17.6505 18.6368 17.7345C18.6716 17.8184 18.6895 17.9084 18.6895 17.9993Z" stroke="url(#paint2_linear_629_1042)" stroke-width="2" stroke-linecap="round" stroke-linejoin="round"/>
<path d="M27.002 9.69463C27.002 9.87819 26.929 10.0542 26.7993 10.184C26.6695 10.3138 26.4934 10.3867 26.3099 10.3867C26.1263 10.3867 25.9503 10.3138 25.8205 10.184C25.6907 10.0542 25.6178 9.87819 25.6178 9.69463C25.6178 9.60375 25.6357 9.51375 25.6704 9.42978C25.7052 9.34581 25.7562 9.26952 25.8205 9.20525C25.8847 9.14098 25.9611 9.09 26.045 9.05522C26.129 9.02044 26.219 9.00254 26.3099 9.00254C26.4008 9.00254 26.4907 9.02044 26.5747 9.05522C26.6587 9.09 26.735 9.14098 26.7993 9.20525C26.8635 9.26952 26.9145 9.34581 26.9493 9.42978C26.9841 9.51375 27.002 9.60375 27.002 9.69463Z" stroke="url(#paint3_linear_629_1042)" stroke-width="2" stroke-linecap="round" stroke-linejoin="round"/>
<path d="M10.3809 9.69463C10.3809 9.87819 10.308 10.0542 10.1782 10.184C10.0484 10.3138 9.87232 10.3867 9.68877 10.3867C9.50522 10.3867 9.32917 10.3138 9.19938 10.184C9.06959 10.0542 8.99668 9.87819 8.99668 9.69463C8.99668 9.60375 9.01457 9.51375 9.04935 9.42978C9.08413 9.34581 9.13511 9.26952 9.19938 9.20525C9.26365 9.14098 9.33996 9.09 9.42392 9.05522C9.50789 9.02044 9.59788 9.00254 9.68877 9.00254C9.77966 9.00254 9.86965 9.02044 9.95362 9.05522C10.0376 9.09 10.1139 9.14098 10.1782 9.20525C10.2424 9.26952 10.2934 9.34581 10.3282 9.42978C10.3629 9.51375 10.3809 9.60375 10.3809 9.69463Z" stroke="url(#paint4_linear_629_1042)" stroke-width="2" stroke-linecap="round" stroke-linejoin="round"/>
<path d="M18.6895 9.69463C18.6895 9.87819 18.6165 10.0542 18.4868 10.184C18.357 10.3138 18.1809 10.3867 17.9974 10.3867C17.8138 10.3867 17.6378 10.3138 17.508 10.184C17.3782 10.0542 17.3053 9.87819 17.3053 9.69463C17.3053 9.60375 17.3232 9.51375 17.3579 9.42978C17.3927 9.34581 17.4437 9.26952 17.508 9.20525C17.5722 9.14098 17.6486 9.09 17.7325 9.05522C17.8165 9.02044 17.9065 9.00254 17.9974 9.00254C18.0883 9.00254 18.1782 9.02044 18.2622 9.05522C18.3462 9.09 18.4225 9.14098 18.4868 9.20525C18.551 9.26952 18.602 9.34581 18.6368 9.42978C18.6716 9.51375 18.6895 9.60375 18.6895 9.69463Z" stroke="url(#paint5_linear_629_1042)" stroke-width="2" stroke-linecap="round" stroke-linejoin="round"/>
<path d="M27.002 26.3045C27.002 26.4881 26.929 26.6641 26.7993 26.7939C26.6695 26.9237 26.4934 26.9966 26.3099 26.9966C26.1263 26.9966 25.9503 26.9237 25.8205 26.7939C25.6907 26.6641 25.6178 26.4881 25.6178 26.3045C25.6178 26.2136 25.6357 26.1236 25.6704 26.0396C25.7052 25.9557 25.7562 25.8794 25.8205 25.8151C25.8847 25.7508 25.9611 25.6999 26.045 25.6651C26.129 25.6303 26.219 25.6124 26.3099 25.6124C26.4008 25.6124 26.4907 25.6303 26.5747 25.6651C26.6587 25.6999 26.735 25.7508 26.7993 25.8151C26.8635 25.8794 26.9145 25.9557 26.9493 26.0396C26.9841 26.1236 27.002 26.2136 27.002 26.3045Z" stroke="url(#paint6_linear_629_1042)" stroke-width="2" stroke-linecap="round" stroke-linejoin="round"/>
<path d="M10.3809 26.3045C10.3809 26.4881 10.308 26.6641 10.1782 26.7939C10.0484 26.9237 9.87232 26.9966 9.68877 26.9966C9.50522 26.9966 9.32917 26.9237 9.19938 26.7939C9.06959 26.6641 8.99668 26.4881 8.99668 26.3045C8.99668 26.2136 9.01457 26.1236 9.04935 26.0396C9.08413 25.9557 9.13511 25.8794 9.19938 25.8151C9.26365 25.7508 9.33996 25.6999 9.42392 25.6651C9.50789 25.6303 9.59788 25.6124 9.68877 25.6124C9.77966 25.6124 9.86965 25.6303 9.95362 25.6651C10.0376 25.6999 10.1139 25.7508 10.1782 25.8151C10.2424 25.8794 10.2934 25.9557 10.3282 26.0396C10.3629 26.1236 10.3809 26.2136 10.3809 26.3045Z" stroke="url(#paint7_linear_629_1042)" stroke-width="2" stroke-linecap="round" stroke-linejoin="round"/>
<path d="M18.6895 26.3045C18.6895 26.4881 18.6165 26.6641 18.4868 26.7939C18.357 26.9237 18.1809 26.9966 17.9974 26.9966C17.8138 26.9966 17.6378 26.9237 17.508 26.7939C17.3782 26.6641 17.3053 26.4881 17.3053 26.3045C17.3053 26.2136 17.3232 26.1236 17.3579 26.0396C17.3927 25.9557 17.4437 25.8794 17.508 25.8151C17.5722 25.7508 17.6486 25.6999 17.7325 25.6651C17.8165 25.6303 17.9065 25.6124 17.9974 25.6124C18.0883 25.6124 18.1782 25.6303 18.2622 25.6651C18.3462 25.6999 18.4225 25.7508 18.4868 25.8151C18.551 25.8794 18.602 25.9557 18.6368 26.0396C18.6716 26.1236 18.6895 26.2136 18.6895 26.3045Z" stroke="url(#paint8_linear_629_1042)" stroke-width="2" stroke-linecap="round" stroke-linejoin="round"/>
<defs>
<linearGradient id="paint0_linear_629_1042" x1="26.3099" y1="18.6914" x2="26.3099" y2="17.3072" gradientUnits="userSpaceOnUse">
<stop stop-color="#CB964E"/>
<stop offset="1" stop-color="#B9813A"/>
</linearGradient>
<linearGradient id="paint1_linear_629_1042" x1="9.68877" y1="18.6914" x2="9.68877" y2="17.3072" gradientUnits="userSpaceOnUse">
<stop stop-color="#CB964E"/>
<stop offset="1" stop-color="#B9813A"/>
</linearGradient>
<linearGradient id="paint2_linear_629_1042" x1="17.9974" y1="18.6914" x2="17.9974" y2="17.3072" gradientUnits="userSpaceOnUse">
<stop stop-color="#CB964E"/>
<stop offset="1" stop-color="#B9813A"/>
</linearGradient>
<linearGradient id="paint3_linear_629_1042" x1="26.3099" y1="10.3867" x2="26.3099" y2="9.00254" gradientUnits="userSpaceOnUse">
<stop stop-color="#CB964E"/>
<stop offset="1" stop-color="#B9813A"/>
</linearGradient>
<linearGradient id="paint4_linear_629_1042" x1="9.68877" y1="10.3867" x2="9.68877" y2="9.00254" gradientUnits="userSpaceOnUse">
<stop stop-color="#CB964E"/>
<stop offset="1" stop-color="#B9813A"/>
</linearGradient>
<linearGradient id="paint5_linear_629_1042" x1="17.9974" y1="10.3867" x2="17.9974" y2="9.00254" gradientUnits="userSpaceOnUse">
<stop stop-color="#CB964E"/>
<stop offset="1" stop-color="#B9813A"/>
</linearGradient>
<linearGradient id="paint6_linear_629_1042" x1="26.3099" y1="26.9966" x2="26.3099" y2="25.6124" gradientUnits="userSpaceOnUse">
<stop stop-color="#CB964E"/>
<stop offset="1" stop-color="#B9813A"/>
</linearGradient>
<linearGradient id="paint7_linear_629_1042" x1="9.68877" y1="26.9966" x2="9.68877" y2="25.6124" gradientUnits="userSpaceOnUse">
<stop stop-color="#CB964E"/>
<stop offset="1" stop-color="#B9813A"/>
</linearGradient>
<linearGradient id="paint8_linear_629_1042" x1="17.9974" y1="26.9966" x2="17.9974" y2="25.6124" gradientUnits="userSpaceOnUse">
<stop stop-color="#CB964E"/>
<stop offset="1" stop-color="#B9813A"/>
</linearGradient>
</defs>
</svg>
