<svg width="20" height="20" viewBox="0 0 20 20" fill="none" xmlns="http://www.w3.org/2000/svg">
<path fill-rule="evenodd" clip-rule="evenodd" d="M8.59718 0.581057L7.09183 2.08641C6.96983 2.20841 6.80436 2.27696 6.63184 2.27696H4.26081C3.16515 2.27696 2.27696 3.16515 2.27696 4.26081V6.63184C2.27696 6.80436 2.20841 6.96983 2.08641 7.09183L0.581057 8.59718C-0.193685 9.37193 -0.193686 10.628 0.581057 11.4028L2.08641 12.9081C2.20841 13.0301 2.27696 13.1956 2.27696 13.3681V15.7392C2.27696 16.8348 3.16515 17.723 4.26081 17.723H6.63184C6.80436 17.723 6.96983 17.7916 7.09183 17.9136L8.59718 19.4189C9.37193 20.1937 10.628 20.1937 11.4028 19.4189L12.9081 17.9136C13.0301 17.7916 13.1956 17.723 13.3681 17.723H15.7392C16.8348 17.723 17.723 16.8348 17.723 15.7392V13.3681C17.723 13.1956 17.7916 13.0301 17.9136 12.9081L19.4189 11.4028C20.1937 10.628 20.1937 9.37193 19.4189 8.59718L17.9136 7.09183C17.7916 6.96983 17.723 6.80436 17.723 6.63184V4.26081C17.723 3.16515 16.8348 2.27696 15.7392 2.27696H13.3681C13.1956 2.27696 13.0301 2.20841 12.9081 2.08641L11.4028 0.581057C10.628 -0.193685 9.37193 -0.193686 8.59718 0.581057ZM6.1953 12.8619L12.862 6.19526L13.8048 7.13807L7.13811 13.8048L6.1953 12.8619ZM6.66666 6.66666V7.99999H7.99999V6.66666H6.66666ZM12 13.3333H13.3333V12H12V13.3333Z" fill="url(#paint0_linear_263_2038)"/>
<defs>
<linearGradient id="paint0_linear_263_2038" x1="10" y1="0" x2="10" y2="20" gradientUnits="userSpaceOnUse">
<stop stop-color="#CB964E"/>
<stop offset="1" stop-color="#B9813A"/>
</linearGradient>
</defs>
</svg>
