<svg width="9" height="11" viewBox="0 0 9 11" fill="none" xmlns="http://www.w3.org/2000/svg">
<path d="M4.5 5.26838C3.9225 5.26838 3.42815 5.01048 3.01695 4.49468C2.60565 3.97876 2.4 3.35859 2.4 2.63419C2.4 1.90979 2.60565 1.28969 3.01695 0.773887C3.42815 0.257962 3.9225 0 4.5 0C5.0775 0 5.57185 0.257962 5.98305 0.773887C6.39435 1.28969 6.6 1.90979 6.6 2.63419C6.6 3.35859 6.39435 3.97876 5.98305 4.49468C5.57185 5.01048 5.0775 5.26838 4.5 5.26838ZM0 9.85657V9.32672C0 8.95819 0.0798001 8.61687 0.2394 8.30278C0.399 7.98868 0.6123 7.74721 0.8793 7.57838C1.4723 7.21373 2.07055 6.94021 2.67405 6.75783C3.27755 6.57544 3.8862 6.48425 4.5 6.48425C5.1138 6.48425 5.72245 6.57544 6.32595 6.75783C6.92945 6.94021 7.5277 7.21373 8.1207 7.57838C8.3877 7.74721 8.601 7.98868 8.7606 8.30278C8.9202 8.61687 9 8.95819 9 9.32672V9.85657C9 10.1739 8.91135 10.4439 8.73405 10.6664C8.55675 10.8888 8.34155 11 8.08845 11H0.91155C0.65845 11 0.44325 10.8888 0.26595 10.6664C0.0886499 10.4439 0 10.1739 0 9.85657ZM0.9 9.87106H8.1V9.32672C8.1 9.17432 8.0648 9.0332 7.9944 8.90337C7.924 8.77367 7.82845 8.6678 7.70775 8.58576C7.19075 8.2664 6.66365 8.02443 6.12645 7.85986C5.58915 7.69541 5.047 7.61318 4.5 7.61318C3.953 7.61318 3.41085 7.69541 2.87355 7.85986C2.33635 8.02443 1.80925 8.2664 1.29225 8.58576C1.17155 8.6678 1.076 8.77367 1.0056 8.90337C0.9352 9.0332 0.9 9.17432 0.9 9.32672V9.87106ZM4.5 4.13944C4.83 4.13944 5.1125 3.99205 5.3475 3.69727C5.5825 3.40249 5.7 3.04813 5.7 2.63419C5.7 2.22025 5.5825 1.86588 5.3475 1.57111C5.1125 1.27633 4.83 1.12894 4.5 1.12894C4.17 1.12894 3.8875 1.27633 3.6525 1.57111C3.4175 1.86588 3.3 2.22025 3.3 2.63419C3.3 3.04813 3.4175 3.40249 3.6525 3.69727C3.8875 3.99205 4.17 4.13944 4.5 4.13944Z" fill="#1C1B1F"/>
</svg>
