<svg width="508" height="322" viewBox="0 0 508 322" fill="none" xmlns="http://www.w3.org/2000/svg">
<path d="M321.062 271.071C321.062 261.805 286.572 254.295 244.028 254.295C201.485 254.295 166.995 261.805 166.995 271.071C166.995 271.636 167.127 272.193 167.377 272.742C147.807 273.506 132.953 277.23 132.953 281.711C132.953 286.746 151.695 290.827 174.812 290.827C179.124 290.827 183.285 290.686 187.199 290.422C186.716 290.99 186.45 291.574 186.45 292.172C186.45 297.442 206.064 301.713 230.262 301.713C254.46 301.713 274.074 297.442 274.074 292.172C274.074 290.294 271.574 288.544 267.274 287.068C298.454 284.923 321.062 278.572 321.062 271.071Z" fill="#19A4B5"/>
<path d="M321.062 269.343C321.062 260.077 286.572 252.567 244.028 252.567C201.485 252.567 166.995 260.077 166.995 269.343C166.995 269.908 167.127 270.465 167.377 271.013C147.807 271.778 132.953 275.502 132.953 279.983C132.953 285.018 151.695 289.099 174.812 289.099C179.124 289.099 183.285 288.958 187.199 288.694C186.716 289.262 186.45 289.846 186.45 290.443C186.45 295.714 206.064 299.985 230.262 299.985C254.46 299.985 274.074 295.714 274.074 290.443C274.074 288.566 271.574 286.816 267.274 285.34C298.454 283.195 321.062 276.846 321.062 269.343Z" fill="#E51B47"/>
<g opacity="0.12">
<path d="M171.889 264.979C171.825 264.82 171.792 264.659 171.746 264.498C171.523 264.672 171.307 264.847 171.109 265.023C171.371 265.01 171.625 264.99 171.889 264.979Z" fill="white"/>
<path d="M267.601 286.554C272.943 291.353 251.149 295.533 230.014 295.533C207.649 295.533 189.519 291.027 189.519 285.47C189.519 284.84 189.763 284.223 190.211 283.625C159.067 286.692 132.431 282.219 140.229 275.279C137.57 276.452 136.059 277.771 136.059 279.17C136.059 284.038 154.181 287.986 176.534 287.986C180.705 287.986 184.726 287.848 188.512 287.594C188.045 288.143 187.788 288.707 187.788 289.285C187.788 294.381 206.755 298.513 230.154 298.513C253.55 298.513 271.093 295.058 271.745 290.003C271.927 288.572 269.626 286.876 267.601 286.554Z" fill="white"/>
<path d="M313.906 263.605C313.949 274.51 292.323 280.235 263.977 282.461C292.279 282.677 317.953 275.793 317.953 268.878C317.955 267.031 316.517 265.258 313.906 263.605Z" fill="white"/>
</g>
<path opacity="0.34" d="M252.461 273.646C277.267 273.646 297.376 269.266 297.376 263.864C297.376 258.462 277.267 254.082 252.461 254.082C227.654 254.082 207.545 258.462 207.545 263.864C207.545 269.266 227.654 273.646 252.461 273.646Z" fill="#BE234B"/>
<path d="M166.67 322C187.371 322 204.153 318.346 204.153 313.838C204.153 309.33 187.371 305.676 166.67 305.676C145.969 305.676 129.188 309.33 129.188 313.838C129.188 318.346 145.969 322 166.67 322Z" fill="#19A4B5"/>
<path d="M166.667 320.272C187.796 320.272 204.924 316.542 204.924 311.941C204.924 307.34 187.796 303.61 166.667 303.61C145.538 303.61 128.41 307.34 128.41 311.941C128.41 316.542 145.538 320.272 166.667 320.272Z" fill="#E51B47"/>
<path opacity="0.34" d="M153.707 306.673C153.707 307.841 158.056 308.79 163.423 308.79C168.788 308.79 173.139 307.843 173.139 306.673C173.139 305.504 168.79 304.557 163.423 304.557C158.058 304.559 153.707 305.506 153.707 306.673Z" fill="#BE234B"/>
<path opacity="0.34" d="M182.414 311.576C182.414 312.183 184.674 312.674 187.461 312.674C190.249 312.674 192.508 312.182 192.508 311.576C192.508 310.971 190.249 310.477 187.461 310.477C184.674 310.477 182.414 310.969 182.414 311.576Z" fill="#BE234B"/>
<path opacity="0.34" d="M182.458 310.399C183.612 310.399 184.547 310.195 184.547 309.943C184.547 309.691 183.612 309.487 182.458 309.487C181.304 309.487 180.369 309.691 180.369 309.943C180.369 310.195 181.304 310.399 182.458 310.399Z" fill="#BE234B"/>
<path opacity="0.34" d="M186.018 309.507C186.018 309.696 186.72 309.849 187.587 309.849C188.454 309.849 189.156 309.696 189.156 309.507C189.156 309.319 188.454 309.166 187.587 309.166C186.722 309.166 186.018 309.319 186.018 309.507Z" fill="#BE234B"/>
<path opacity="0.08" d="M201.091 309.345C200.469 313.143 185.149 316.187 166.291 316.187C148.165 316.187 133.281 313.376 131.601 309.784C130.845 310.375 130.441 310.996 130.441 311.636C130.441 315.7 146.659 318.993 166.667 318.993C186.673 318.993 202.893 315.7 202.893 311.636C202.893 310.837 202.255 310.067 201.091 309.345Z" fill="white"/>
<path opacity="0.34" d="M215.803 282.335C225.008 282.335 232.47 280.709 232.47 278.704C232.47 276.698 225.008 275.073 215.803 275.073C206.597 275.073 199.135 276.698 199.135 278.704C199.135 280.709 206.597 282.335 215.803 282.335Z" fill="#BE234B"/>
<path opacity="0.34" d="M186.438 270.035C186.438 271.017 190.088 271.812 194.592 271.812C199.096 271.812 202.746 271.017 202.746 270.035C202.746 269.054 199.096 268.26 194.592 268.26C190.09 268.26 186.438 269.054 186.438 270.035Z" fill="#BE234B"/>
<path d="M472.895 263.299C472.895 265.849 480.535 267.919 489.962 267.919C499.389 267.919 507.029 265.851 507.029 263.299C507.029 260.746 499.389 258.678 489.962 258.678C480.535 258.678 472.895 260.746 472.895 263.299Z" fill="#13A0AD"/>
<path d="M92.4121 281.639C92.4121 283.773 98.8034 285.503 106.69 285.503C114.577 285.503 120.968 283.773 120.968 281.639C120.968 279.506 114.577 277.775 106.69 277.775C98.8034 277.775 92.4121 279.506 92.4121 281.639Z" fill="#13A0AD"/>
<path d="M388.648 263.299C388.648 264.149 391.195 264.839 394.338 264.839C397.48 264.839 400.027 264.151 400.027 263.299C400.027 262.448 397.48 261.759 394.338 261.759C391.197 261.759 388.648 262.448 388.648 263.299Z" fill="#13A0AD"/>
<path d="M456.356 205.021C472.523 205.021 485.628 201.473 485.628 197.097C485.628 192.721 472.523 189.173 456.356 189.173C440.19 189.173 427.084 192.721 427.084 197.097C427.084 201.473 440.19 205.021 456.356 205.021Z" fill="#13A0AD"/>
<path d="M105.712 207.324C121.878 207.324 134.984 203.777 134.984 199.401C134.984 195.025 121.878 191.477 105.712 191.477C89.545 191.477 76.4395 195.025 76.4395 199.401C76.4395 203.777 89.545 207.324 105.712 207.324Z" fill="#13A0AD"/>
<path d="M152.968 278.057L153.034 277.976L152.983 278.057C156.611 278.032 160.156 277.726 162.849 277.627C163.757 277.594 164.649 277.526 165.543 277.468L166.003 272.634L165.012 259.836L158.964 261.873L156.779 264.15L155.637 266.163L151.112 269.404L144.098 277.208C146.809 277.891 149.915 278.079 152.968 278.057Z" fill="#B50D3A"/>
<path d="M154.134 278.042L158.368 274.136L155.294 278.013C158.089 277.914 160.733 277.707 162.849 277.627C163.402 277.608 163.941 277.559 164.488 277.53L165.408 275.608L165.012 259.834L146.965 277.748C149.277 278.048 151.74 278.097 154.134 278.042Z" fill="#FF3869"/>
<path d="M154.135 278.042L158.37 274.136L156.878 276.124L156.806 277.482L155.648 278C158.311 277.897 160.823 277.703 162.852 277.629C167.868 277.443 172.675 276.863 177.309 275.754C177.13 274.889 176.913 274.054 176.649 273.261C175.522 273.736 173.689 274.543 173.689 274.543L176.259 272.192C176.044 271.641 175.808 271.116 175.557 270.604L174.71 270.485L175.01 269.543C174.194 268.086 173.263 266.804 172.299 265.689L171.482 265.464L170.993 264.278C170.485 263.774 169.988 263.324 169.5 262.909L168.693 262.961L168.924 262.428C166.743 260.672 165.015 259.831 165.015 259.831L147.996 277.852C150.004 278.054 152.093 278.089 154.135 278.042Z" fill="#EA234B"/>
<path d="M158.903 277.837C158.954 277.835 159 277.831 159.051 277.829L159.873 276.853L158.948 276.642L159.074 275.044L162.455 274.303L165.163 269.69L166.941 268.883L164.854 269.083L162.156 273.513L161.491 274.266L158.826 274.801L158.482 276.338L159.58 277.055L158.903 277.837Z" fill="#FF3869"/>
<path d="M158.92 276.648L158.825 274.799L162.334 274.095L164.974 269.5L166.942 268.881L164.611 269.106L161.903 273.734L158.371 274.136C158.371 274.136 158.276 275.957 158.321 276.155C158.338 276.25 158.627 276.456 158.92 276.648Z" fill="#B50D3A"/>
<path d="M142.93 277.162C142.93 277.162 145.089 275.539 149.614 276.792C154.139 278.045 157.411 277.758 162.09 276.495C166.769 275.232 170.334 277.535 170.334 277.535L166.695 279.391L161.793 280.877C161.793 280.877 157.188 281.62 153.402 281.397C149.614 281.174 149.913 281.247 149.913 281.247L146.423 280.208L144.417 279.614L142.93 277.162Z" fill="#E51B47"/>
<path d="M177.635 281.462C178.19 281.441 178.741 281.425 179.301 281.388C180.962 281.278 183.159 281.241 185.39 281.025L185.353 280.979L185.398 281.023C185.572 281.006 185.747 280.983 185.923 280.963C186.759 280.027 187.566 279.082 188.294 278.13C188.362 278.04 188.437 277.957 188.507 277.868L185.987 275.589L183.002 273.885L182.172 272.722L180.686 271.461L176.842 270.594L177.045 278.519L177.635 281.462Z" fill="#B50D3A"/>
<path d="M178.285 281.433C178.622 281.415 178.958 281.412 179.297 281.388C180.603 281.303 182.24 281.262 183.962 281.146L181.827 278.96L184.676 281.091C185.091 281.058 185.508 281.002 185.925 280.958C186.457 280.362 186.967 279.763 187.456 279.161L176.834 270.598L177.594 280.314L178.285 281.433Z" fill="#FF3869"/>
<path d="M176.839 270.596C176.839 270.596 175.83 271.222 174.603 272.44L174.779 272.753L174.281 272.772C174.007 273.059 173.73 273.366 173.45 273.707L173.225 274.467L172.739 274.657C172.217 275.404 171.726 276.25 171.317 277.196L171.561 277.757L171.049 277.883C170.96 278.126 170.882 278.378 170.807 278.632C171.899 279.076 172.919 279.701 173.798 280.49C174.147 280.804 174.465 281.159 174.799 281.495C176.277 281.528 177.776 281.491 179.301 281.39C180.552 281.307 182.107 281.266 183.75 281.161L183.005 280.917L182.875 280.087L181.832 278.962L184.681 281.093C185.095 281.06 185.512 281.01 185.927 280.963C186.359 280.478 186.78 279.994 187.184 279.507L176.839 270.596Z" fill="#FF2B4B"/>
<path d="M181.735 281.266C181.704 281.268 181.675 281.268 181.644 281.27L181.076 280.723L181.631 280.534L181.452 279.561L179.328 279.32L177.371 276.659L176.227 276.277L177.522 276.267L179.462 278.818L179.918 279.237L181.59 279.396L181.898 280.317L181.27 280.829L181.735 281.266Z" fill="#FF3869"/>
<path d="M181.654 280.536L181.594 279.396L179.394 279.186L177.482 276.531L176.232 276.277L177.679 276.267L179.637 278.938L181.832 278.959C181.832 278.959 182.007 280.071 181.991 280.197C181.986 280.255 181.821 280.401 181.654 280.536Z" fill="#B50D3A"/>
<path d="M494.339 126.657H474.728V83.0755C471.458 82.7128 468.192 82.3947 464.921 82.1212C461.653 81.8496 458.384 81.7138 455.116 81.7138C452.024 81.7138 449.029 81.8496 446.125 82.1212C443.22 82.3947 440.223 82.7128 437.137 83.0755V126.657H398.188L454.297 12.802C449.212 8.81014 443.811 5.85598 438.093 3.94925C432.373 2.04253 426.422 0.727388 420.252 0L420.17 0.162934C420.938 1.22977 421.511 2.46342 421.804 3.83285C422.515 7.15944 421.456 10.4531 419.264 12.7341C422.017 13.9814 424.168 16.4642 424.849 19.6453C425.951 24.801 422.799 29.8656 417.763 31.2137C417.858 31.5144 417.944 31.8228 418.009 32.1389C419.148 37.4634 415.756 42.7025 410.431 43.8392C408.647 44.2213 406.877 44.0836 405.264 43.5463C405.048 47.899 401.953 51.7396 397.489 52.694C396.349 52.9384 395.216 52.9597 394.122 52.8123L343.168 155.801L345.62 159.614H437.139V197.747C440.409 198.108 443.676 198.428 446.946 198.699C450.214 198.973 453.483 199.109 456.751 199.109C459.837 199.109 462.834 198.973 465.74 198.699C468.643 198.426 471.638 198.108 474.73 197.747V159.614H494.341C494.884 157.073 495.293 154.35 495.567 151.442C495.84 148.54 495.974 145.722 495.974 142.999C495.972 137.374 495.427 131.925 494.339 126.657Z" fill="#0066A3"/>
<path d="M144.82 128.528H125.21V84.9471C121.941 84.5844 118.673 84.2662 115.405 83.9927C112.136 83.7212 108.868 83.5835 105.599 83.5835C102.509 83.5835 99.5126 83.7192 96.6108 83.9927C93.7051 84.2662 90.7082 84.5844 87.6222 84.9471V128.528H48.673L104.783 14.6736C99.6968 10.6817 94.2967 7.72753 88.5765 5.82081C82.8563 3.91408 76.9073 2.59897 70.7351 1.87158L0 144.843C0.795278 145.097 1.58086 145.4 2.34122 145.817C6.40296 148.038 8.86058 152.055 9.2621 156.344C12.9941 154.613 17.4631 154.6 21.3484 156.726C23.4781 157.892 25.1521 159.556 26.3334 161.488H87.6222V199.62C90.8906 199.981 94.1609 200.299 97.4293 200.573C100.698 200.846 103.966 200.982 107.234 200.982C110.319 200.982 113.315 200.846 116.223 200.573C119.125 200.299 122.122 199.981 125.212 199.62V161.488H144.822C145.367 158.945 145.776 156.223 146.048 153.316C146.32 150.414 146.457 147.596 146.457 144.872C146.455 139.245 145.91 133.797 144.82 128.528Z" fill="#0066A3"/>
<path d="M495.563 151.445C495.836 148.543 495.97 145.724 495.97 143.001C495.97 140.051 495.811 137.153 495.512 134.3C475.84 128.967 456.361 124.401 437.137 120.52V126.659H398.188L404.197 114.466C391.428 112.362 378.8 110.558 366.318 109.012L343.168 155.805L345.62 159.619H437.139V197.751C440.409 198.112 443.676 198.432 446.946 198.704C450.214 198.977 453.483 199.113 456.751 199.113C459.837 199.113 462.834 198.977 465.74 198.704C468.643 198.43 471.638 198.112 474.73 197.751V159.619H494.341C494.88 157.074 495.289 154.352 495.563 151.445Z" fill="#00599A"/>
<path d="M97.4274 200.573C100.696 200.847 103.964 200.982 107.233 200.982C110.317 200.982 113.314 200.847 116.221 200.573C119.123 200.3 122.12 199.981 125.21 199.621V161.488H144.82C145.365 158.945 145.774 156.224 146.046 153.316C146.318 150.414 146.455 147.596 146.455 144.873C146.455 139.247 145.91 133.799 144.82 128.531H125.21V108.466C112.051 109.991 99.5048 111.696 87.6222 113.517V128.533H48.673L53.1692 119.408C35.9912 122.657 20.7568 126.009 7.76464 129.153L0 144.847C0.795278 145.101 1.58086 145.404 2.34122 145.821C6.40296 148.042 8.86058 152.059 9.2621 156.348C12.9941 154.618 17.4631 154.604 21.3484 156.73C23.4781 157.896 25.1521 159.56 26.3334 161.492H87.6222V199.625C90.8886 199.981 94.159 200.3 97.4274 200.573Z" fill="#00599A"/>
<path d="M141.928 178.679L138.332 166.312L141.905 158.367L138.619 156.02L140.225 147.625L145.315 142.099L145.947 135.87L151.309 132.639L157.231 138.776L164.258 158.869L167.6 175.57L167.585 188.153L141.928 178.679Z" fill="#B50D3A"/>
<path d="M192.26 61.7081L193.6 55.8579L198.269 54.087L200.63 47.4047L201.689 44.3322L205.688 45.4844L204.6 41.446L212.572 37.5879L223.452 41.8591L228.699 50.9951L219.926 61.8904L192.26 61.7081Z" fill="#B50D3A"/>
<path d="M485.887 262.461L311.043 188.428C303.854 185.385 300.462 177.013 303.507 169.823C306.55 162.634 314.922 159.242 322.112 162.287L496.957 236.32C504.146 239.363 507.536 247.735 504.493 254.925C501.45 262.114 493.076 265.505 485.887 262.461Z" fill="white"/>
<path d="M491.882 252.113L317.037 178.08C311.249 175.628 307.931 169.722 308.443 163.761C306.328 165.235 304.585 167.288 303.51 169.823C300.467 177.011 303.857 185.383 311.046 188.428L485.89 262.461C493.079 265.504 501.451 262.114 504.496 254.925C505.09 253.525 505.431 252.08 505.555 250.639C501.676 253.344 496.536 254.083 491.882 252.113Z" fill="#E0EDE7"/>
<path d="M362.43 179.358L322.112 162.287C314.923 159.243 306.551 162.634 303.506 169.823C300.463 177.011 303.853 185.383 311.042 188.428L350.804 205.265C355.69 197.118 359.593 188.422 362.43 179.358Z" fill="#E0EDE7"/>
<path d="M344.177 170.223C358.821 117.285 327.777 62.5002 274.839 47.8569C221.902 33.2136 167.116 64.2574 152.473 117.195C137.83 170.133 168.873 224.918 221.811 239.561C274.749 254.205 329.534 223.161 344.177 170.223Z" fill="#FFB100"/>
<path d="M189.309 161.115L195.218 159.695L205.32 155.587L212.687 147.167L214.902 137.821L216.865 129.258C216.865 129.258 212.675 125.085 206.833 120.604C211.571 138.584 194.035 146.461 194.035 146.461L194.221 148.036L192.731 147.367C190.919 148.74 187.059 149.345 187.059 149.345L187.246 150.92L185.814 149.681C177.702 151.799 171.478 146.893 171.478 146.893C171.016 151.459 166.192 162.496 162.109 164.659L162.126 169.012L158.594 165.448C158.594 165.448 155.145 167.848 150.529 161.425C150.51 161.398 150.494 161.373 150.475 161.348C151.419 166.558 152.795 171.752 154.618 176.897C158.468 176.381 162.594 174.99 166.081 171.851C170.18 168.164 172.977 163.282 173.968 157.003L174.626 157.498L178.948 160.933L189.309 161.115Z" fill="#FF8000"/>
<path d="M207.144 74.7405C228.937 84.695 220.567 107.351 220.567 107.351L221.054 108.633L219.589 109.19C218.27 111.785 216.534 113.282 216.534 113.282L216.725 114.887L214.389 115.354C212.085 118.114 206.834 120.607 206.834 120.607C208.122 123.091 211.224 124.63 213.353 123.685C220.348 120.581 227.513 109.054 226.53 95.4565C225.246 77.7199 211.586 72.6398 211.586 72.6398C218.602 62.8559 219.331 54.8838 217.964 49.0259C216.325 49.5535 214.688 50.1237 213.06 50.7425C212.143 51.0897 211.255 51.4777 210.353 51.8481L209.608 53.0721C214.938 62.1518 208.96 69.0281 208.96 69.0281L206.832 70.0445L207.893 71.7359L207.144 74.7405Z" fill="#FF8000"/>
<path d="M172.131 149.053C172.131 149.053 178.478 154.055 186.751 151.894L188.209 153.159L188.019 151.553C188.019 151.553 191.957 150.936 193.804 149.536L195.322 150.219L195.132 148.613C195.132 148.613 213.014 140.58 208.183 122.246C214.141 126.816 218.415 131.07 218.415 131.07L216.413 139.804L214.153 149.334L206.641 157.921L196.339 162.111L190.312 163.558L179.748 163.37L175.341 159.867L171.625 157.079" fill="#B50D3A"/>
<path d="M212.576 37.5876C215.625 40.9045 217.873 45.0322 218.884 49.7573C220.767 58.5655 217.966 67.2844 212.16 73.3208C219.448 76.6221 225.141 83.1938 226.943 91.618C229.862 105.266 221.514 118.673 208.186 122.246C208.438 123.043 208.661 123.858 208.84 124.694C211.854 138.788 202.871 152.657 188.777 155.669C184.056 156.679 179.37 156.315 175.097 154.891C174.526 166.415 166.333 176.581 154.514 179.106C150.193 180.03 145.898 179.814 141.928 178.68C142.455 180.28 143.004 181.876 143.608 183.469C165.559 241.313 230.248 270.41 288.092 248.458C345.936 226.507 375.033 161.818 353.082 103.974C331.631 47.4509 269.378 18.4059 212.576 37.5876Z" fill="#EA234B"/>
<g opacity="0.07">
<path d="M212.158 73.3212C212.663 73.5501 213.14 73.8313 213.628 74.0893C215.747 71.0634 217.229 67.6088 217.917 63.9214C216.67 67.4264 214.73 70.6463 212.158 73.3212Z" fill="white"/>
<path d="M153.432 183.04C163.996 180.78 171.646 172.414 173.562 162.434C170.608 170.622 163.654 177.153 154.514 179.108C150.193 180.031 145.898 179.816 141.928 178.681C142.426 180.194 142.952 181.705 143.516 183.21C146.713 183.769 150.061 183.761 153.432 183.04Z" fill="white"/>
<path d="M352.002 107.906C360.541 130.406 361.326 153.933 355.728 175.586C362.488 152.87 362.141 127.842 353.082 103.972C331.631 47.449 269.38 18.4039 212.576 37.5876C213.404 38.4895 214.169 39.4555 214.869 40.4719C270.746 23.5306 330.976 52.5 352.002 107.906Z" fill="white"/>
<path d="M187.69 159.603C198.31 157.332 206.021 148.898 207.89 138.848C204.96 147.104 197.967 153.702 188.771 155.669C184.05 156.68 179.363 156.315 175.09 154.891C175.022 156.28 174.836 157.648 174.553 158.988C178.68 160.266 183.167 160.569 187.69 159.603Z" fill="white"/>
<path d="M208.979 125.576C217.907 122.448 224.279 114.801 225.978 105.832C223.172 113.651 216.705 119.963 208.184 122.246C208.436 123.043 208.659 123.858 208.837 124.694C208.899 124.989 208.927 125.281 208.979 125.576Z" fill="white"/>
</g>
<g opacity="0.09">
<path d="M299.025 131.482C299.216 131.482 299.128 131.269 298.758 130.883C298.775 131.259 298.857 131.482 299.025 131.482Z" fill="white"/>
<path d="M220.182 42.9798C223.384 46.8786 224.847 56.7652 222.897 63.5891C256.731 62.3205 345.964 67.0805 355.086 146.182C355.375 133.137 353.234 119.825 348.318 106.875C328.332 54.2126 267.702 26.1722 220.182 42.9798Z" fill="white"/>
<path d="M223.768 76.1539C223.691 76.2354 223.846 76.0724 223.768 76.1539C231.568 82.1107 236.442 92.17 230.088 106.636C274.771 113.643 295.815 127.804 298.759 130.883C298.567 126.774 307.748 100.392 307.748 100.392C271.817 78.658 223.768 76.1539 223.768 76.1539Z" fill="white"/>
</g>
<path opacity="0.34" d="M302.796 220.089C307.833 220.089 311.918 216.004 311.918 210.966C311.918 205.929 307.835 201.844 302.796 201.844C297.758 201.844 293.673 205.927 293.673 210.966C293.673 216.005 297.758 220.089 302.796 220.089ZM218.368 191.109C218.368 196.147 222.453 200.232 227.491 200.232C232.528 200.232 236.613 196.147 236.613 191.109C236.613 186.072 232.528 181.987 227.491 181.987C222.453 181.987 218.368 186.07 218.368 191.109ZM317.726 207.467C318.81 206.383 318.81 204.623 317.726 203.539C316.641 202.455 314.882 202.455 313.798 203.539C312.714 204.623 312.714 206.383 313.798 207.467C314.882 208.551 316.641 208.551 317.726 207.467ZM220.717 178.893C222.905 178.893 224.678 177.12 224.678 174.932C224.678 172.744 222.905 170.971 220.717 170.971C218.529 170.971 216.757 172.744 216.757 174.932C216.757 177.12 218.529 178.893 220.717 178.893ZM208.307 207.471C212.46 204.767 215.212 200.09 215.212 194.764C215.212 186.39 208.424 179.601 200.05 179.601C196.966 179.601 194.107 180.532 191.715 182.117C191.624 178.463 188.648 175.522 184.971 175.522C183.714 175.522 182.55 175.889 181.541 176.486C178.527 171.549 176.415 167.344 175.111 164.516C171.684 170.265 165.971 174.628 158.907 176.137C154.767 177.021 150.655 176.816 146.854 175.728C147.358 177.26 147.883 178.79 148.461 180.313C169.482 235.703 231.426 263.565 286.817 242.544C298.998 237.922 309.845 231.316 319.136 223.241C266.762 239.656 231.186 226.102 208.307 207.471Z" fill="#BE234B"/>
<path d="M164.208 177.202L163.267 189.476L168.712 192.419L178.352 202.135H177.377L166.448 193.404L163.267 191.532L161.82 187.595V177.689" fill="#FF3869"/>
<path d="M214.129 129.248L214.887 130.247L218.414 129.669L223.071 135.451L224.706 144.744L224.522 137.406L227.577 134.295L233.568 137.406L228.355 131.886L228.869 122.636L221.203 117.587L221.542 115.631C221.542 115.631 229.061 109.915 229.705 97.982C230.587 81.6206 214.697 72.6243 214.697 72.6243C217.797 68.1649 220.768 61.9287 220.574 52.4863C220.382 43.0438 212.577 37.5874 212.577 37.5874C215.626 40.9043 217.874 45.032 218.885 49.7571C220.768 58.5653 217.967 67.2842 212.162 73.3206C219.449 76.622 225.142 83.1937 226.944 91.6178C229.864 105.266 221.515 118.673 208.188 122.246C208.44 123.043 208.663 123.858 208.841 124.694L211.615 125.237L214.129 129.248Z" fill="#FF3869"/>
<path d="M219.74 50.2247L224.646 48.7622L235.673 50.4847L243.628 49.1851L235.213 51.4041L228.702 50.9948L223.371 51.4041L220.165 53.4718L219.74 53.1265" fill="#FF3869"/>
<path d="M216.436 42.0564L225.331 43.8234L230.299 38.9121L226.652 44.2405L225.217 45.6022L220.449 44.7991L217.923 44.2405" fill="#FF3869"/>
<path d="M217.164 129.873L221.992 137.184L223.051 145.016L227.834 151.561L224.112 144.743L222.993 135.006L218.772 129.111L217.164 129.873Z" fill="#FF3869"/>
<path d="M162.723 178.028C175.987 171.27 175.958 156.241 175.958 156.241C175.958 156.241 189.512 161.059 200.817 150.674C213.815 138.735 208.836 124.694 208.836 124.694C211.85 138.788 202.867 152.657 188.773 155.669C184.052 156.68 179.366 156.315 175.093 154.891C174.522 166.415 166.329 176.581 154.511 179.106C150.189 180.03 145.894 179.814 141.924 178.68C141.924 178.68 149.46 184.784 162.723 178.028Z" fill="#FF3869"/>
<path d="M175.093 154.891C175.093 154.891 174.877 151.506 172.127 149.052C171.655 153.708 166.738 164.966 162.574 167.171L162.591 171.609L158.989 167.976C158.989 167.976 155.472 170.422 150.765 163.873C146.057 157.325 145.303 150.943 145.303 150.943L141.753 160.625L138.506 169.636L141.924 178.679C141.924 178.679 156.774 183.366 166.626 174.503C171.739 169.906 174.912 163.526 175.093 154.891Z" fill="#B50D3A"/>
<path d="M208.183 122.246C208.183 122.246 213.539 119.703 215.888 116.89L218.27 116.413L218.076 114.778C218.076 114.778 219.847 113.251 221.191 110.606L222.684 110.039L222.188 108.732C222.188 108.732 230.723 85.6281 208.499 75.4756L209.26 72.4109L208.177 70.6865L210.348 69.6488C210.348 69.6488 216.444 62.6348 211.009 53.3766L212.194 51.4311L208.203 52.7326L205.021 52.2302L207.435 47.897L210.988 42.0623L212.573 37.5894C212.573 37.5894 229.231 50.7328 213.027 73.3303C213.027 73.3303 226.956 78.5113 228.265 96.599C229.576 114.685 215.667 120.343 208.183 122.246Z" fill="#B50D3A"/>
<path d="M158.99 177.39L161.913 192.482L168.301 195.355L177.675 203.638L181.735 212.69L178.352 202.134L168.499 193.411C168.499 193.411 163.304 190.397 163.267 189.478C163.228 188.556 162.598 175.399 162.598 175.399L158.99 177.39Z" fill="#B50D3A"/>
<path d="M217.545 57.0934L225.628 51.5691L235.733 52.2965L244.324 49.0359L235.881 50.836L224.813 49.4199L217.374 52.9444L219.69 46.0992L225.839 46.5744L231.965 41.44L239.952 41.217L230.302 38.9126L225.637 44.1925L213.299 42.2062L213.776 46.2369L217.545 57.0934Z" fill="#B50D3A"/>
<path d="M321.061 47.2955L292.381 34.3945L289.685 40.2718C293.062 42.9855 295.17 47.988 296.09 54.7556C296.239 55.8554 296.363 56.992 296.449 58.183C296.47 58.4701 296.48 58.7727 296.495 59.0636C296.555 60.0975 296.594 61.1624 296.61 62.2583C296.615 62.6249 296.623 62.9896 296.623 63.364C296.623 64.7063 296.596 66.0873 296.532 67.513C296.518 67.8311 296.493 68.1628 296.476 68.4848C296.408 69.734 296.317 71.0122 296.202 72.3196C296.171 72.6862 296.142 73.045 296.107 73.4155C295.956 74.975 295.774 76.5733 295.558 78.2104C295.512 78.5615 295.457 78.9223 295.409 79.2773C295.207 80.7243 294.982 82.1985 294.732 83.6998C294.674 84.047 294.621 84.3884 294.561 84.7395C294.259 86.4891 293.923 88.2736 293.556 90.0892C293.477 90.481 293.392 90.8806 293.308 91.2763C292.971 92.894 292.612 94.533 292.224 96.1992C292.148 96.5251 292.078 96.8471 292.001 97.1749C291.549 99.0797 291.062 101.019 290.546 102.982C290.432 103.417 290.313 103.853 290.195 104.29C289.72 106.065 289.219 107.861 288.692 109.676C288.608 109.963 288.531 110.245 288.447 110.532C287.85 112.565 287.216 114.626 286.556 116.706C286.405 117.181 286.25 117.66 286.096 118.137C285.476 120.061 284.832 122.001 284.159 123.958C284.081 124.187 284.007 124.412 283.928 124.641C283.189 126.775 282.411 128.93 281.61 131.098C281.42 131.612 281.228 132.126 281.034 132.64C280.256 134.712 279.459 136.795 278.627 138.894C278.57 139.038 278.516 139.177 278.46 139.321C277.581 141.528 276.662 143.753 275.723 145.984C275.496 146.523 275.265 147.064 275.036 147.605C274.074 149.859 273.095 152.119 272.072 154.39C271.052 156.66 270.012 158.89 268.965 161.102C268.695 161.672 268.424 162.242 268.15 162.809C267.167 164.859 266.176 166.89 265.171 168.886C265.095 169.035 265.023 169.188 264.948 169.336C263.873 171.466 262.787 173.555 261.693 175.618C261.418 176.138 261.14 176.654 260.865 177.17C259.883 179.001 258.896 180.811 257.901 182.586C257.767 182.824 257.635 183.069 257.501 183.305C256.39 185.278 255.273 187.206 254.149 189.105C253.878 189.565 253.606 190.019 253.333 190.473C252.349 192.116 251.364 193.733 250.377 195.316C250.204 195.594 250.031 195.879 249.859 196.154C248.728 197.952 247.593 199.706 246.457 201.422C246.195 201.818 245.933 202.204 245.673 202.596C244.697 204.053 243.722 205.478 242.748 206.871C242.542 207.164 242.337 207.466 242.131 207.757C240.998 209.36 239.867 210.911 238.74 212.422C238.49 212.758 238.24 213.082 237.99 213.414C237.035 214.674 236.085 215.9 235.138 217.091C234.904 217.386 234.667 217.691 234.432 217.982C233.321 219.361 232.215 220.691 231.115 221.971C230.875 222.251 230.638 222.517 230.398 222.792C229.482 223.843 228.573 224.856 227.667 225.835C227.405 226.119 227.141 226.41 226.879 226.687C225.812 227.822 224.751 228.906 223.702 229.936C223.467 230.165 223.236 230.378 223.004 230.603C222.148 231.428 221.299 232.213 220.457 232.962C220.166 233.22 219.877 233.484 219.588 233.734C218.587 234.601 217.596 235.423 216.62 236.182C216.385 236.364 216.156 236.525 215.924 236.7C215.146 237.285 214.378 237.834 213.617 238.348C207.131 242.732 201.335 244.443 196.728 242.87L194.178 248.431L223.337 261.607L223.39 261.493C223.741 261.693 224.067 261.935 224.437 262.102C244.047 270.922 281.573 229.986 308.254 170.668C334.938 111.352 340.67 56.1153 321.061 47.2955Z" fill="#FF2852"/>
<g opacity="0.09">
<path d="M324.785 125.781C312.107 120.115 299.169 115.274 288.157 111.487C287.655 113.169 287.141 114.862 286.598 116.575C302.269 122.101 314.176 127.03 323.173 131.245C323.737 129.406 324.273 127.587 324.785 125.781Z" fill="white"/>
<path d="M296.087 54.7571C296.237 55.8569 296.361 56.9936 296.446 58.1845C296.467 58.4716 296.477 58.7742 296.493 59.0652C296.553 60.099 296.592 61.1639 296.607 62.2599C296.613 62.6265 296.621 62.9911 296.621 63.3655C296.621 64.7077 296.593 66.0869 296.529 67.5145C296.516 67.8326 296.491 68.1643 296.473 68.4863C296.417 69.5376 296.334 70.6238 296.242 71.7178C310.181 76.7029 322.399 82.7722 332.164 88.3586C333.106 78.0956 332.794 69.2292 331.157 62.3083C316.757 53.2557 302.81 47.3397 292.602 43.7163C294.31 46.5075 295.472 50.224 296.087 54.7571Z" fill="white"/>
<path d="M294.995 82.0122C294.905 82.5767 294.832 83.1275 294.737 83.6997C294.679 84.0469 294.626 84.3883 294.566 84.7394C294.263 86.489 293.928 88.2736 293.561 90.0891C293.482 90.481 293.396 90.8805 293.313 91.2762C292.977 92.8939 292.617 94.533 292.229 96.1992C292.153 96.5251 292.083 96.8471 292.006 97.1749C291.645 98.7014 291.245 100.261 290.842 101.826C304.472 106.54 316.906 112.277 327.009 117.52C328.746 110.578 330.08 103.948 331.029 97.7044C318.971 91.0997 306.311 85.9246 294.995 82.0122Z" fill="white"/>
</g>
<path opacity="0.34" d="M290.39 201.167C291.067 200.084 291.477 198.814 291.477 197.442C291.477 193.545 288.319 190.388 284.422 190.388C281.951 190.388 279.782 191.664 278.523 193.59C277.757 192.475 276.473 191.742 275.016 191.742C273.306 191.742 271.839 192.758 271.164 194.215C265.999 192.112 260.668 189.746 255.334 187.067C254.939 187.744 254.549 188.442 254.153 189.113C253.881 189.573 253.61 190.027 253.336 190.481C252.353 192.124 251.367 193.741 250.38 195.324C250.208 195.602 250.035 195.887 249.862 196.162C248.731 197.96 247.597 199.714 246.46 201.43C246.322 201.638 246.185 201.844 246.047 202.049C255.478 206.815 268.532 212.456 283.406 216.267C286.422 211.697 289.413 206.869 292.35 201.795C291.715 201.595 291.044 201.374 290.39 201.167Z" fill="#BE234B"/>
<path opacity="0.34" d="M239.479 211.41C239.233 211.743 238.987 212.096 238.74 212.426C238.49 212.762 238.24 213.086 237.99 213.417C237.035 214.678 236.085 215.904 235.138 217.095C234.904 217.39 234.667 217.694 234.432 217.985C233.321 219.364 232.215 220.695 231.115 221.975C230.875 222.255 230.638 222.52 230.398 222.796C229.482 223.847 228.572 224.86 227.667 225.839C227.405 226.122 227.141 226.413 226.879 226.691C225.812 227.825 224.751 228.91 223.702 229.938C223.467 230.167 223.236 230.38 223.003 230.605C222.148 231.429 221.298 232.215 220.457 232.964C220.166 233.222 219.877 233.485 219.588 233.736C218.587 234.603 217.596 235.425 216.62 236.184C216.385 236.366 216.156 236.527 215.924 236.701C215.146 237.289 214.378 237.836 213.617 238.35C210.525 240.439 207.596 241.902 204.871 242.711C212.228 247.09 226.353 254.124 245.828 257.637C255.301 251.515 265.869 240.668 276.392 226.336C266.032 222.995 252.799 218.094 239.479 211.41Z" fill="#BE234B"/>
<g opacity="0.29">
<path d="M293.138 34.7381C288.848 32.8081 283.698 33.2601 277.993 35.7662C280.951 36.5828 283.872 37.5177 286.749 38.569C286.743 38.5826 286.743 38.5962 286.737 38.6097C286.974 38.6951 287.22 38.7572 287.451 38.8619C304.257 46.4209 297.371 98.147 272.069 154.396C246.77 210.646 212.635 250.115 195.829 242.556C195.738 242.515 195.659 242.455 195.569 242.412C195.554 242.426 195.538 242.439 195.525 242.453C192.701 240.942 189.94 239.307 187.248 237.555C189.159 243.475 192.233 247.62 196.52 249.547C216.128 258.366 253.091 221.475 281.38 158.582C310.918 92.9098 312.749 43.5579 293.138 34.7381Z" fill="white"/>
</g>
<path d="M293.138 34.7381C288.848 32.8081 283.698 33.2601 277.993 35.7662C280.951 36.5828 283.872 37.5177 286.749 38.569C286.743 38.5826 286.743 38.5962 286.737 38.6097C286.974 38.6951 287.22 38.7572 287.451 38.8619C304.257 46.4209 297.371 98.147 272.069 154.396C246.77 210.646 212.635 250.115 195.829 242.556C195.738 242.515 195.659 242.455 195.569 242.412C195.554 242.426 195.538 242.439 195.525 242.453C192.701 240.942 189.94 239.307 187.248 237.555C189.159 243.475 192.233 247.62 196.52 249.547C216.128 258.366 253.656 217.431 280.336 158.113C307.017 98.7948 312.749 43.5579 293.138 34.7381Z" fill="#FF465A"/>
<path d="M208.184 122.246L212.882 123.581L215.219 129.737L218.774 129.111L222.212 133.407L227.662 132.538L233.568 137.405L226.937 133.96L223.854 137.675L224.706 144.743L229.34 152.133L225.817 156.243L227.835 151.563L223.622 144.795L222.543 137.143L221.104 133.828L217.657 126.647L214.129 129.25L211.857 124.694L208.835 124.696C208.835 124.696 208.259 123.976 208.184 122.246Z" fill="#B50D3A"/>
<path d="M224.812 133.62L225.816 123.222L219.039 118.407L221.98 113.112L221.202 117.587L228.07 122.917L227.663 132.538L224.812 133.62Z" fill="#B50D3A"/>
<path d="M112.852 127.464L119.639 128.995L122.263 131.218L123.727 133.274L128.998 136.28L140.341 146.543L135.684 151.951L132.161 150.081L127.878 145.796L131.785 150.768L129.081 153.645L125.347 154.122L123.243 153.809L120.246 156.915L116.446 153.559L114.432 147.54L113.212 141.455L112.852 127.464Z" fill="#B50D3A"/>
<path d="M112.852 127.464L135.335 145.593L132.161 150.081L121.662 142.227L129.698 150.458L125.347 154.122L122.641 153.72L120.246 156.915L118.552 151.736L114.194 144.615" fill="#FF3869"/>
<path d="M109.495 151.044L114.506 153.065L116.669 155.369L118.533 156.174L119.382 156.273L119.638 156.652L120.243 156.913L122.036 153.631L125.345 154.12L129.092 150.251L125.349 146.21L123.731 145.679L123.5 144.214L121.659 142.226L132.159 150.08L134.384 146.006L112.851 127.463C112.851 127.463 111.071 128.57 108.904 130.718L109.214 131.269L108.334 131.302C107.851 131.806 107.362 132.351 106.867 132.954L106.47 134.295L105.608 134.63C104.687 135.947 103.822 137.443 103.1 139.113L103.533 140.102L102.627 140.325C102.412 140.907 102.216 141.504 102.043 142.125L105.094 144.385C105.094 144.385 103.015 143.714 101.741 143.326C101.372 144.988 101.155 146.765 101.182 148.677L106.697 151.059L109.495 151.044Z" fill="#EA234B"/>
<path d="M125.824 146.166L123.958 145.514L123.76 144.191" fill="#B50D3A"/>
<path d="M127.954 149.021L124.445 147.704L123.196 148.101L120.335 145.343L121.315 145.011L120.999 143.291L117.249 142.866L113.797 138.168L111.777 137.495L114.064 137.478L117.488 141.98L118.293 142.721L121.243 143L121.786 144.627L120.677 145.529L121.864 146.645L123.262 147.624L126.779 147.775L127.954 149.021Z" fill="#FF3869"/>
<path d="M121.664 142.228L117.788 142.189L114.332 137.476L111.777 137.495L113.983 137.945L117.36 142.631L121.243 143L121.371 145.465L122.18 146.379L122.989 147.292L127.547 148.58L126.591 147.469L123.142 147.847L120.677 145.531C120.677 145.531 121.92 144.635 121.947 144.414C121.972 144.193 121.664 142.228 121.664 142.228Z" fill="#B50D3A"/>
<path d="M192.152 55.1899L187.944 56.1365L186.319 57.5157L185.411 58.79L182.145 60.6521L175.115 67.0144L178.002 70.3642L180.186 69.2062L182.839 66.5508L180.418 69.631L182.094 71.4136L184.408 71.7085L185.712 71.5164L187.568 73.4406L189.925 71.3612L191.172 67.6312L191.929 63.8604L192.152 55.1899Z" fill="#B50D3A"/>
<path d="M192.152 55.1899L178.217 66.4228L180.186 69.2062L186.691 64.3395L181.71 69.439L184.408 71.7085L186.084 71.4621L187.568 73.4406L188.619 70.2304L191.319 65.8176" fill="#FF3869"/>
<path d="M194.233 69.8017L191.128 71.0547L189.787 72.4824L188.631 72.9809L188.106 73.041L187.947 73.2757L187.572 73.4386L186.461 71.4039L184.41 71.7065L182.087 69.309L184.407 66.8049L185.409 66.4751L185.553 65.5673L186.693 64.3356L180.186 69.2023L178.807 66.6788L192.152 55.186C192.152 55.186 193.255 55.8727 194.598 57.2033L194.406 57.5447L194.951 57.5641C195.249 57.8764 195.554 58.2139 195.859 58.5883L196.105 59.4185L196.638 59.626C197.209 60.4426 197.746 61.3679 198.192 62.4037L197.924 63.0166L198.485 63.1543C198.619 63.5151 198.739 63.8856 198.848 64.2697L196.956 65.6701C196.956 65.6701 198.244 65.255 199.034 65.0145C199.261 66.0445 199.397 67.1443 199.379 68.3314L195.961 69.8075L194.233 69.8017Z" fill="#EA234B"/>
<path d="M184.111 66.7782L185.267 66.3747L185.392 65.5562" fill="#B50D3A"/>
<path d="M182.795 68.5472L184.969 67.7325L185.743 67.9789L187.518 66.27L186.911 66.0624L187.105 64.9975L189.429 64.7337L191.57 61.8242L192.821 61.4052L191.403 61.3955L189.283 64.1848L188.783 64.6445L186.956 64.8171L186.618 65.8258L187.307 66.3844L186.572 67.0769L185.703 67.6821L183.524 67.7771L182.795 68.5472Z" fill="#FF3869"/>
<path d="M186.694 64.34L189.095 64.3167L191.236 61.3955L192.819 61.4071L191.454 61.6865L189.361 64.5902L186.953 64.8191L186.874 66.3476L186.373 66.914L185.873 67.4803L183.049 68.2776L183.64 67.589L185.778 67.8237L187.306 66.3883C187.306 66.3883 186.536 65.8335 186.519 65.6958C186.503 65.5562 186.694 64.34 186.694 64.34Z" fill="#B50D3A"/>
<path d="M193.798 47.0489C193.821 44.3973 193.846 41.7457 193.902 39.0941L191.782 37.0633C191.4 36.9779 191.028 36.8771 190.671 36.751C190.11 36.7529 189.559 36.7277 189.047 36.6249C188.855 36.5861 188.665 36.526 188.473 36.4717L186.679 38.2523L187.98 40.3336L190.799 42.7757L187.575 40.5935L185.926 42.38L185.798 44.6941L186.081 45.9723L184.307 47.9489L185.445 49.0662C185.581 49.0739 185.717 49.0603 185.853 49.07C187.445 49.1981 189.03 49.2853 190.622 49.3493C191.53 48.3853 192.653 47.5784 193.798 47.0489Z" fill="#B50D3A"/>
<path d="M193.788 47.052C193.803 45.2597 193.815 43.4693 193.85 41.677L190.601 38.1875L187.984 40.3328L193.266 46.4351L187.862 41.8594L185.802 44.6913L186.167 46.3362L184.311 47.9462L187.563 48.7589L188.52 49.2535C189.218 49.2962 189.938 49.2981 190.642 49.3272C191.542 48.3767 192.655 47.5776 193.788 47.052Z" fill="#FF3869"/>
<path d="M193.778 47.0541C193.794 45.4578 193.807 43.8614 193.838 42.265L190.386 38.7891L187.982 40.3331L193.264 46.4354L191.963 45.3918L191.053 45.3142L190.655 44.3444L188.01 42.2223L185.798 44.6935L186.244 46.7031L184.307 47.9464L184.493 48.3072L184.737 48.4468L184.834 48.9647L184.883 49.0598C185.207 49.0617 185.531 49.0443 185.851 49.0695C187.443 49.1975 189.028 49.2848 190.62 49.3488C191.524 48.3886 192.642 47.5856 193.778 47.0541Z" fill="#EA234B"/>
<path d="M190.664 44.0542L191.147 45.1715L191.968 45.2374" fill="#B50D3A"/>
<path d="M109.886 267.437C105.669 268.831 101.45 270.228 97.2161 271.568L95.1406 276.027C95.2105 276.679 95.2512 277.325 95.2473 277.959C95.5518 278.848 95.8098 279.734 95.9242 280.601C95.9669 280.927 95.9747 281.263 95.9921 281.594L99.7862 283.476L102.383 280.285L104.732 274.495L103.016 280.787L106.74 282.434L110.478 281.389L112.352 280.248L116.444 281.994L117.602 279.585C117.54 279.366 117.443 279.156 117.389 278.937C116.731 276.342 116.014 273.781 115.253 271.223C113.232 270.309 111.345 268.961 109.886 267.437Z" fill="#B50D3A"/>
<path d="M109.901 267.45C107.052 268.395 104.204 269.345 101.345 270.257L97.5684 277.294L102.385 280.285L109.209 268.61L104.875 279.653L110.479 281.387L112.888 279.921L116.446 281.992L115.976 276.392L116.246 274.608C115.937 273.475 115.551 272.336 115.214 271.204C113.214 270.296 111.348 268.961 109.901 267.45Z" fill="#FF3869"/>
<path d="M109.908 267.461C107.367 268.297 104.83 269.141 102.281 269.955L98.6367 277.309L102.384 280.286L109.208 268.613L108.256 271.239L108.624 272.723L107.301 273.877L105.367 279.219L110.481 281.39L113.427 279.598L116.447 281.997L116.918 281.506L117.01 281.043L117.776 280.608L117.9 280.478C117.729 279.964 117.524 279.46 117.392 278.938C116.734 276.343 116.016 273.782 115.256 271.224C113.243 270.314 111.363 268.978 109.908 267.461Z" fill="#EA234B"/>
<path d="M106.832 274.022L108.343 272.652L108.002 271.318" fill="#B50D3A"/>
<path opacity="0.14" d="M230.887 66.8515C229.035 78.7632 240.665 90.4615 256.864 92.9792C273.062 95.497 287.695 87.8817 289.548 75.97C291.4 64.0583 279.77 52.3599 263.571 49.8422C247.371 47.3264 232.738 54.9417 230.887 66.8515Z" fill="white"/>
<path opacity="0.14" d="M257.674 95.1792C256.904 100.135 261.742 105 268.48 106.047C275.219 107.095 281.306 103.927 282.076 98.9733C282.846 94.0173 278.008 89.1525 271.27 88.1051C264.533 87.0557 258.446 90.2233 257.674 95.1792Z" fill="white"/>
<path opacity="0.14" d="M340.126 130.775C335.841 131.487 333.327 137.841 334.512 144.966C335.697 152.09 340.131 157.289 344.416 156.577C348.701 155.865 351.215 149.511 350.03 142.386C348.844 135.26 344.41 130.061 340.126 130.775Z" fill="white"/>
<g opacity="0.09">
<path d="M198.603 243.314C197.961 243.219 197.338 243.078 196.737 242.872L196.488 243.411C197.173 243.433 197.877 243.404 198.603 243.314Z" fill="white"/>
<path d="M321.064 47.296L292.384 34.395L291.794 35.681L317.615 47.296C337.226 56.1158 331.492 111.353 304.811 170.671C281.207 223.149 249.123 261.212 228.457 263.189C248.851 265.559 283.3 226.162 308.262 170.671C334.941 111.353 340.673 56.1158 321.064 47.296Z" fill="white"/>
</g>
<g opacity="0.14">
<path d="M181.467 166.646C193.88 168.087 205.851 161.828 211.961 150.977C213.494 148.254 209.308 145.808 207.774 148.529C202.426 158.026 192.242 163.048 181.465 161.797C178.374 161.438 178.399 166.291 181.467 166.646Z" fill="white"/>
<path d="M213.311 144.931C216.432 144.931 216.436 140.082 213.311 140.082C210.19 140.082 210.186 144.931 213.311 144.931Z" fill="white"/>
<path d="M223.402 71.6408C226.486 67.3269 228.214 62.4892 228.842 57.2423C229.213 54.1505 224.36 54.1776 223.993 57.2423C223.468 61.6261 221.77 65.618 219.214 69.1928C217.396 71.7358 221.602 74.1604 223.402 71.6408Z" fill="white"/>
<path d="M312.949 64.0261C311.022 89.5429 305.126 114.27 295.513 137.975C293.753 142.311 300.787 144.198 302.527 139.909C312.39 115.589 318.248 90.1869 320.222 64.0261C320.575 59.3573 313.3 59.3805 312.949 64.0261Z" fill="white"/>
<path d="M294.187 154.511C298.868 154.511 298.875 147.237 294.187 147.237C289.507 147.237 289.499 154.511 294.187 154.511Z" fill="white"/>
<path d="M289.408 164.072C294.088 164.072 294.096 156.798 289.408 156.798C284.727 156.798 284.72 164.072 289.408 164.072Z" fill="white"/>
<path d="M165.729 138.906C166.309 130.757 167.733 122.807 169.919 114.937C171.593 108.914 162.237 106.344 160.567 112.359C158.15 121.057 156.672 129.904 156.032 138.906C155.588 145.133 165.289 145.105 165.729 138.906Z" fill="white"/>
<path d="M171.938 104.16C178.178 104.16 178.19 94.4619 171.938 94.4619C165.698 94.4619 165.687 104.16 171.938 104.16Z" fill="white"/>
<path d="M179.522 90.679C185.762 90.679 185.773 80.9805 179.522 80.9805C173.282 80.9805 173.272 90.679 179.522 90.679Z" fill="white"/>
</g>
<g opacity="0.08">
<path d="M223.906 291.454C233.577 292.309 243.117 291.952 252.713 290.496C255.453 290.08 254.29 285.916 251.564 286.329C242.366 287.726 233.168 287.953 223.906 287.132C221.138 286.888 221.154 291.211 223.906 291.454Z" fill="white"/>
<path d="M258.299 289.541C261.079 289.541 261.084 285.22 258.299 285.22C255.519 285.22 255.516 289.541 258.299 289.541Z" fill="white"/>
<path d="M307.769 267.884C310.549 267.884 310.555 263.562 307.769 263.562C304.988 263.564 304.984 267.884 307.769 267.884Z" fill="white"/>
<path d="M303.947 267.386C303.877 267.386 303.805 267.386 303.735 267.386C300.956 267.386 300.95 271.708 303.735 271.708C303.805 271.708 303.877 271.708 303.947 271.708C306.728 271.708 306.732 267.386 303.947 267.386Z" fill="white"/>
<path d="M283.773 277.631C288.46 277.214 292.95 276.194 297.316 274.427C299.861 273.397 298.75 269.217 296.168 270.261C292.18 271.874 288.064 272.93 283.773 273.312C281.027 273.556 281 277.88 283.773 277.631Z" fill="white"/>
<path d="M140.94 312.053C147.244 313.622 153.628 314.206 160.102 314.536C162.643 314.666 162.637 310.713 160.102 310.584C153.977 310.272 147.956 309.727 141.991 308.241C139.522 307.628 138.469 311.438 140.94 312.053Z" fill="white"/>
<path d="M166.72 314.343C166.788 314.343 166.858 314.343 166.926 314.343C169.706 314.343 169.711 310.021 166.926 310.021C166.858 310.021 166.788 310.021 166.72 310.021C163.939 310.023 163.935 314.343 166.72 314.343Z" fill="white"/>
<path d="M173.513 314.137C173.581 314.137 173.651 314.137 173.719 314.137C176.499 314.137 176.504 309.815 173.719 309.815C173.651 309.815 173.581 309.815 173.513 309.815C170.732 309.817 170.728 314.137 173.513 314.137Z" fill="white"/>
</g>
<path d="M351.52 206.78C349.978 210.332 354.22 215.598 360.993 218.54C367.769 221.483 374.511 220.988 376.055 217.437C377.597 213.885 371.76 212.295 364.985 209.352C358.21 206.409 353.062 203.228 351.52 206.78Z" fill="#E51B47"/>
<path d="M378.347 217.896C377.639 219.793 379.214 222.132 381.864 223.12C384.514 224.107 387.235 223.372 387.941 221.475C388.649 219.578 386.343 219.201 383.693 218.214C381.043 217.225 379.055 215.999 378.347 217.896Z" fill="#E51B47"/>
<path d="M391.628 223.101C391.19 224.275 392.164 225.724 393.805 226.335C395.444 226.946 397.129 226.49 397.566 225.317C398.004 224.143 396.577 223.91 394.938 223.297C393.299 222.686 392.067 221.928 391.628 223.101Z" fill="#E51B47"/>
<path d="M391.911 224.871C391.911 224.871 395.065 229.381 394.337 237.14C393.61 244.898 388.931 256.116 394.913 257.388C397.553 257.949 398.217 252.649 397.767 249.224C396.83 242.074 393.757 233.411 396.915 226.079C395.466 224.396 391.911 224.871 391.911 224.871Z" fill="#E51B47"/>
<g opacity="0.14">
<path d="M248.895 157.44L239.37 161.213L235.593 151.681C234.016 147.714 229.498 145.757 225.51 147.326C221.538 148.909 219.587 153.427 221.162 157.393L224.936 166.925L215.414 170.696C211.438 172.273 209.477 176.792 211.048 180.777C212.627 184.747 217.143 186.702 221.125 185.133L230.655 181.357L234.425 190.886C235.628 193.926 238.555 195.786 241.653 195.786C242.601 195.786 243.565 195.611 244.5 195.243C248.473 193.666 250.428 189.15 248.859 185.168L245.084 175.638L254.616 171.864C256.538 171.099 258.053 169.635 258.875 167.732C259.702 165.827 259.735 163.717 258.968 161.787C257.386 157.812 252.864 155.865 248.895 157.44Z" fill="white"/>
<path d="M280.879 109.638C280.113 107.714 278.642 106.201 276.739 105.378C274.837 104.556 272.728 104.525 270.804 105.291L261.278 109.062L257.503 99.53C255.928 95.5633 251.409 93.6101 247.423 95.1754C243.448 96.7582 241.495 101.276 243.072 105.244L246.847 114.774L237.323 118.547C233.35 120.126 231.391 124.643 232.958 128.628C234.539 132.604 239.059 134.555 243.035 132.982L252.565 129.206L256.336 138.735C257.538 141.777 260.465 143.637 263.563 143.637C264.511 143.637 265.476 143.46 266.412 143.094C270.383 141.515 272.34 136.997 270.769 133.017L266.994 123.487L276.526 119.713C278.448 118.95 279.961 117.486 280.786 115.583C281.612 113.678 281.647 111.568 280.879 109.638Z" fill="white"/>
</g>
<path d="M249.04 158.438L239.514 162.21L235.738 152.679C234.161 148.712 229.643 146.755 225.655 148.324C221.682 149.907 219.731 154.424 221.306 158.391L225.081 167.923L215.559 171.694C211.582 173.271 209.621 177.79 211.193 181.774C212.771 185.745 217.287 187.7 221.269 186.131L230.799 182.354L234.57 191.884C235.772 194.923 238.699 196.784 241.797 196.784C242.746 196.784 243.71 196.609 244.645 196.24C248.617 194.663 250.572 190.148 249.003 186.166L245.229 176.636L254.76 172.861C256.682 172.099 258.195 170.633 259.02 168.73C259.846 166.825 259.879 164.715 259.113 162.784C257.526 158.81 253.007 156.863 249.04 158.438Z" fill="#C1153A"/>
<path d="M281.018 110.635C280.25 108.711 278.782 107.198 276.879 106.376C274.974 105.553 272.868 105.522 270.944 106.289L261.418 110.059L257.643 100.528C256.068 96.5609 251.549 94.6076 247.562 96.173C243.588 97.7558 241.635 102.273 243.212 106.242L246.986 115.772L237.462 119.544C233.49 121.121 231.531 125.643 233.1 129.625C234.679 133.601 239.2 135.553 243.177 133.98L252.706 130.203L256.477 139.733C257.68 142.774 260.607 144.635 263.705 144.635C264.653 144.635 265.617 144.458 266.554 144.091C270.525 142.514 272.482 137.995 270.911 134.015L267.136 124.485L276.668 120.71C278.59 119.948 280.105 118.483 280.927 116.581C281.752 114.676 281.786 112.565 281.018 110.635Z" fill="#C1153A"/>
<path d="M224.014 157.321L228.861 169.557L216.635 174.4C214.137 175.393 212.919 178.21 213.9 180.704C214.893 183.203 217.71 184.413 220.2 183.429L232.438 178.58L237.279 190.818C238.261 193.305 241.083 194.525 243.575 193.541C246.07 192.55 247.28 189.73 246.301 187.241L241.453 175.005L253.689 170.158C256.172 169.175 257.4 166.352 256.412 163.864C255.421 161.373 252.599 160.153 250.114 161.144L237.884 165.99L233.037 153.754C232.048 151.265 229.233 150.049 226.737 151.029C224.246 152.018 223.026 154.836 224.014 157.321Z" fill="#51137E"/>
<path d="M245.922 105.169L250.769 117.404L238.543 122.248C236.045 123.241 234.827 126.057 235.808 128.552C236.801 131.05 239.618 132.26 242.108 131.277L254.346 126.428L259.187 138.665C260.169 141.152 262.991 142.372 265.484 141.389C267.978 140.397 269.189 137.577 268.209 135.088L263.362 122.853L275.597 118.006C278.08 117.022 279.308 114.2 278.319 111.711C277.328 109.221 274.507 108.001 272.021 108.992L259.791 113.837L254.943 101.601C253.954 99.1128 251.14 97.8947 248.643 98.8762C246.153 99.8674 244.934 102.686 245.922 105.169Z" fill="#51137E"/>
<path d="M278.29 218.581C277.574 180.514 292.799 143.438 320.057 116.861C325.9 111.162 335.29 111.282 340.987 117.126C346.674 122.961 346.56 132.349 340.719 138.056C319.293 158.954 307.319 188.1 307.884 218.024C307.923 220.059 307.552 222.043 306.78 223.922C304.536 229.389 299.272 232.991 293.363 233.103C285.207 233.254 278.443 226.741 278.29 218.581Z" fill="#C1153A"/>
<path d="M302.218 222.047C302.714 220.836 302.978 219.508 302.953 218.117C302.365 186.833 314.876 156.365 337.278 134.522C341.175 130.71 341.256 124.468 337.455 120.569C333.649 116.667 327.401 116.589 323.5 120.393C297.213 146.024 282.532 181.779 283.22 218.487C283.323 223.936 287.821 228.269 293.272 228.168C297.328 228.093 300.769 225.577 302.218 222.047Z" fill="#FF6B74"/>
<path d="M301.309 176.08L323.489 206.661C328.366 212.981 327.212 222.103 320.869 226.988C314.516 231.87 305.407 230.694 300.535 224.355L292.303 213.687L301.309 176.08Z" fill="#FFABAE"/>
<path d="M295.234 193.384C295.738 192.798 296.227 192.201 296.732 191.615C296.827 191.506 296.904 191.384 296.99 191.27L314.451 213.962C315.419 215.217 315.19 217.027 313.931 217.997C312.67 218.967 310.862 218.732 309.894 217.475L292.938 195.438C293.781 194.875 294.549 194.179 295.234 193.384Z" fill="#FF7895"/>
<path opacity="0.4" d="M292.303 213.687L297.022 219.803C297.067 216.007 297.705 195.512 306.238 182.908C306.238 182.894 306.236 182.883 306.236 182.869L301.311 176.078L292.303 213.687Z" fill="#FF7895"/>
<path d="M296.561 219.639C296.731 219.224 296.809 218.767 296.77 218.291C292.745 167.793 333.783 127.711 334.199 127.316C335.372 126.187 335.405 124.33 334.284 123.161C333.159 121.989 331.301 121.95 330.129 123.073C328.352 124.778 286.656 165.435 290.912 218.757C291.042 220.375 292.458 221.581 294.076 221.453C295.216 221.364 296.153 220.631 296.561 219.639Z" fill="#B3153A"/>
<g opacity="0.26">
<path d="M299.374 218.848C303.211 223.963 308.004 228.554 314.89 227.33C317.957 226.785 316.657 222.111 313.6 222.654C309.224 223.432 305.892 219.508 303.56 216.4C301.712 213.933 297.5 216.348 299.374 218.848Z" fill="white"/>
<path d="M319.978 223.714C323.099 223.714 323.103 218.864 319.978 218.864C316.857 218.864 316.851 223.714 319.978 223.714Z" fill="white"/>
<path d="M321.193 123.881C314.185 131.358 307.986 139.478 302.623 148.212C300.985 150.879 305.177 153.318 306.81 150.66C311.96 142.273 317.892 134.493 324.623 127.31C326.754 125.035 323.333 121.598 321.193 123.881Z" fill="white"/>
<path d="M327.463 124.203C330.584 124.203 330.588 119.354 327.463 119.354C324.342 119.354 324.338 124.203 327.463 124.203Z" fill="white"/>
<path d="M335.601 133.477C338.722 133.477 338.726 128.628 335.601 128.628C332.482 128.628 332.476 133.477 335.601 133.477Z" fill="white"/>
<path d="M250.777 105.201C253.898 105.201 253.902 100.352 250.777 100.352C247.658 100.352 247.652 105.201 250.777 105.201Z" fill="white"/>
<path d="M250.878 109.091C251.595 111.698 252.536 114.211 253.644 116.677C254.181 117.872 255.917 118.157 256.96 117.548C258.19 116.828 258.369 115.43 257.829 114.231C256.894 112.151 256.157 110 255.552 107.803C254.728 104.796 250.047 106.072 250.878 109.091Z" fill="white"/>
<path d="M228.837 157.907C231.958 157.907 231.962 153.058 228.837 153.058C225.716 153.058 225.71 157.907 228.837 157.907Z" fill="white"/>
<path d="M229.135 161.806C229.696 163.53 230.254 165.253 230.815 166.977C231.218 168.222 232.495 169.029 233.798 168.67C235.02 168.335 235.897 166.938 235.492 165.687C234.931 163.963 234.372 162.24 233.812 160.516C233.408 159.271 232.132 158.464 230.829 158.823C229.609 159.16 228.73 160.555 229.135 161.806Z" fill="white"/>
</g>
</svg>
